<mxfile host="app.diagrams.net" modified="2024-02-06T11:32:12.737Z" agent="Mozilla/5.0 (Windows NT 10.0; Win64; x64) AppleWebKit/537.36 (KHTML, like Gecko) Chrome/120.0.0.0 Safari/537.36 OPR/106.0.0.0" etag="dTRRrvXaZmF2LWnCSfPL" version="23.1.1" type="device">
  <diagram name="Pagina-1" id="ML9_9gqeZWIEMA2FJORQ">
    <mxGraphModel dx="996" dy="525" grid="1" gridSize="10" guides="1" tooltips="1" connect="1" arrows="1" fold="1" page="1" pageScale="1" pageWidth="827" pageHeight="1169" math="0" shadow="0">
      <root>
        <mxCell id="0" />
        <mxCell id="1" parent="0" />
        <mxCell id="jxF4DCrFGfWSiqKUyiHQ-20" value="" style="rounded=0;whiteSpace=wrap;html=1;fillColor=#fff2cc;strokeColor=#d6b656;" vertex="1" parent="1">
          <mxGeometry x="140" y="20" width="320" height="310" as="geometry" />
        </mxCell>
        <mxCell id="jxF4DCrFGfWSiqKUyiHQ-11" style="edgeStyle=orthogonalEdgeStyle;rounded=0;orthogonalLoop=1;jettySize=auto;html=1;" edge="1" parent="1" source="jxF4DCrFGfWSiqKUyiHQ-1" target="jxF4DCrFGfWSiqKUyiHQ-6">
          <mxGeometry relative="1" as="geometry" />
        </mxCell>
        <mxCell id="jxF4DCrFGfWSiqKUyiHQ-1" value="User" style="sketch=0;outlineConnect=0;fontColor=#232F3E;gradientColor=none;fillColor=#232F3D;strokeColor=none;dashed=0;verticalLabelPosition=bottom;verticalAlign=top;align=center;html=1;fontSize=12;fontStyle=0;aspect=fixed;pointerEvents=1;shape=mxgraph.aws4.user;" vertex="1" parent="1">
          <mxGeometry x="193" y="240" width="50" height="50" as="geometry" />
        </mxCell>
        <mxCell id="jxF4DCrFGfWSiqKUyiHQ-2" value="User" style="sketch=0;outlineConnect=0;fontColor=#232F3E;gradientColor=none;fillColor=#232F3D;strokeColor=none;dashed=0;verticalLabelPosition=bottom;verticalAlign=top;align=center;html=1;fontSize=12;fontStyle=0;aspect=fixed;pointerEvents=1;shape=mxgraph.aws4.user;" vertex="1" parent="1">
          <mxGeometry x="193" y="155" width="50" height="50" as="geometry" />
        </mxCell>
        <mxCell id="jxF4DCrFGfWSiqKUyiHQ-7" style="edgeStyle=orthogonalEdgeStyle;rounded=0;orthogonalLoop=1;jettySize=auto;html=1;fontColor=#3333FF;" edge="1" parent="1" source="jxF4DCrFGfWSiqKUyiHQ-3" target="jxF4DCrFGfWSiqKUyiHQ-4">
          <mxGeometry relative="1" as="geometry" />
        </mxCell>
        <mxCell id="jxF4DCrFGfWSiqKUyiHQ-3" value="User" style="sketch=0;outlineConnect=0;fontColor=#232F3E;gradientColor=none;fillColor=#232F3D;strokeColor=none;dashed=0;verticalLabelPosition=bottom;verticalAlign=top;align=center;html=1;fontSize=12;fontStyle=0;aspect=fixed;pointerEvents=1;shape=mxgraph.aws4.user;" vertex="1" parent="1">
          <mxGeometry x="193" y="74" width="50" height="50" as="geometry" />
        </mxCell>
        <mxCell id="jxF4DCrFGfWSiqKUyiHQ-4" value="Human agent" style="sketch=0;pointerEvents=1;shadow=0;dashed=0;html=1;strokeColor=none;fillColor=#505050;labelPosition=center;verticalLabelPosition=bottom;verticalAlign=top;outlineConnect=0;align=center;shape=mxgraph.office.users.call_center_agent;" vertex="1" parent="1">
          <mxGeometry x="377" y="71.5" width="46" height="55" as="geometry" />
        </mxCell>
        <mxCell id="jxF4DCrFGfWSiqKUyiHQ-5" value="Human agent" style="sketch=0;pointerEvents=1;shadow=0;dashed=0;html=1;strokeColor=none;fillColor=#505050;labelPosition=center;verticalLabelPosition=bottom;verticalAlign=top;outlineConnect=0;align=center;shape=mxgraph.office.users.call_center_agent;" vertex="1" parent="1">
          <mxGeometry x="377" y="157" width="46" height="55" as="geometry" />
        </mxCell>
        <mxCell id="jxF4DCrFGfWSiqKUyiHQ-6" value="Human agent" style="sketch=0;pointerEvents=1;shadow=0;dashed=0;html=1;strokeColor=none;fillColor=#505050;labelPosition=center;verticalLabelPosition=bottom;verticalAlign=top;outlineConnect=0;align=center;shape=mxgraph.office.users.call_center_agent;" vertex="1" parent="1">
          <mxGeometry x="377" y="238" width="46" height="55" as="geometry" />
        </mxCell>
        <mxCell id="jxF4DCrFGfWSiqKUyiHQ-8" style="edgeStyle=orthogonalEdgeStyle;rounded=0;orthogonalLoop=1;jettySize=auto;html=1;entryX=0;entryY=0.409;entryDx=0;entryDy=0;entryPerimeter=0;" edge="1" parent="1" source="jxF4DCrFGfWSiqKUyiHQ-2" target="jxF4DCrFGfWSiqKUyiHQ-5">
          <mxGeometry relative="1" as="geometry" />
        </mxCell>
        <mxCell id="jxF4DCrFGfWSiqKUyiHQ-12" value="emergency code: RED" style="text;html=1;strokeColor=none;fillColor=none;align=center;verticalAlign=middle;whiteSpace=wrap;rounded=0;fontSize=11;fontColor=#FF3333;" vertex="1" parent="1">
          <mxGeometry x="243" y="270" width="129" height="30" as="geometry" />
        </mxCell>
        <mxCell id="jxF4DCrFGfWSiqKUyiHQ-14" value="emergency code: BLUE" style="text;html=1;strokeColor=none;fillColor=none;align=center;verticalAlign=middle;whiteSpace=wrap;rounded=0;fontSize=11;fontColor=#3333FF;" vertex="1" parent="1">
          <mxGeometry x="243" y="182.5" width="129" height="30" as="geometry" />
        </mxCell>
        <mxCell id="jxF4DCrFGfWSiqKUyiHQ-15" value="emergency code: BLUE" style="text;html=1;strokeColor=none;fillColor=none;align=center;verticalAlign=middle;whiteSpace=wrap;rounded=0;fontSize=11;fontColor=#3333FF;" vertex="1" parent="1">
          <mxGeometry x="248" y="102.5" width="129" height="30" as="geometry" />
        </mxCell>
        <mxCell id="jxF4DCrFGfWSiqKUyiHQ-16" value="&quot;I feel very hot&quot;" style="text;html=1;strokeColor=none;fillColor=none;align=center;verticalAlign=middle;whiteSpace=wrap;rounded=0;fontColor=#3333FF;" vertex="1" parent="1">
          <mxGeometry x="269" y="71.5" width="90" height="30" as="geometry" />
        </mxCell>
        <mxCell id="jxF4DCrFGfWSiqKUyiHQ-17" value="&quot;I keep coughing&quot;" style="text;html=1;strokeColor=none;fillColor=none;align=center;verticalAlign=middle;whiteSpace=wrap;rounded=0;fontColor=#3333FF;" vertex="1" parent="1">
          <mxGeometry x="262.5" y="152.5" width="96.5" height="30" as="geometry" />
        </mxCell>
        <mxCell id="jxF4DCrFGfWSiqKUyiHQ-18" value="&quot;I&#39;m having a heart attack!&quot;" style="text;html=1;strokeColor=none;fillColor=none;align=center;verticalAlign=middle;whiteSpace=wrap;rounded=0;fontColor=#FF3333;" vertex="1" parent="1">
          <mxGeometry x="222.25" y="238" width="170.5" height="30" as="geometry" />
        </mxCell>
        <mxCell id="jxF4DCrFGfWSiqKUyiHQ-21" value="Standard EMS&amp;nbsp;" style="text;html=1;strokeColor=none;fillColor=none;align=left;verticalAlign=middle;whiteSpace=wrap;rounded=0;fontSize=19;fontStyle=1" vertex="1" parent="1">
          <mxGeometry x="160" y="32.13" width="146" height="30" as="geometry" />
        </mxCell>
        <mxCell id="jxF4DCrFGfWSiqKUyiHQ-22" value="" style="rounded=0;whiteSpace=wrap;html=1;fillColor=#d5e8d4;strokeColor=#82b366;" vertex="1" parent="1">
          <mxGeometry x="480" y="20" width="490" height="310" as="geometry" />
        </mxCell>
        <mxCell id="jxF4DCrFGfWSiqKUyiHQ-44" style="edgeStyle=orthogonalEdgeStyle;rounded=0;orthogonalLoop=1;jettySize=auto;html=1;entryX=0.5;entryY=1;entryDx=0;entryDy=0;dashed=1;" edge="1" parent="1" source="jxF4DCrFGfWSiqKUyiHQ-24" target="jxF4DCrFGfWSiqKUyiHQ-40">
          <mxGeometry relative="1" as="geometry" />
        </mxCell>
        <mxCell id="jxF4DCrFGfWSiqKUyiHQ-24" value="User" style="sketch=0;outlineConnect=0;fontColor=#232F3E;gradientColor=none;fillColor=#232F3D;strokeColor=none;dashed=0;verticalLabelPosition=bottom;verticalAlign=top;align=center;html=1;fontSize=12;fontStyle=0;aspect=fixed;pointerEvents=1;shape=mxgraph.aws4.user;" vertex="1" parent="1">
          <mxGeometry x="503" y="244" width="50" height="50" as="geometry" />
        </mxCell>
        <mxCell id="jxF4DCrFGfWSiqKUyiHQ-47" style="edgeStyle=orthogonalEdgeStyle;rounded=0;orthogonalLoop=1;jettySize=auto;html=1;entryX=0;entryY=0.5;entryDx=0;entryDy=0;" edge="1" parent="1" source="jxF4DCrFGfWSiqKUyiHQ-25" target="jxF4DCrFGfWSiqKUyiHQ-40">
          <mxGeometry relative="1" as="geometry" />
        </mxCell>
        <mxCell id="jxF4DCrFGfWSiqKUyiHQ-25" value="User" style="sketch=0;outlineConnect=0;fontColor=#232F3E;gradientColor=none;fillColor=#232F3D;strokeColor=none;dashed=0;verticalLabelPosition=bottom;verticalAlign=top;align=center;html=1;fontSize=12;fontStyle=0;aspect=fixed;pointerEvents=1;shape=mxgraph.aws4.user;" vertex="1" parent="1">
          <mxGeometry x="503" y="162.5" width="50" height="50" as="geometry" />
        </mxCell>
        <mxCell id="jxF4DCrFGfWSiqKUyiHQ-46" style="edgeStyle=orthogonalEdgeStyle;rounded=0;orthogonalLoop=1;jettySize=auto;html=1;entryX=0.5;entryY=0;entryDx=0;entryDy=0;" edge="1" parent="1" source="jxF4DCrFGfWSiqKUyiHQ-27" target="jxF4DCrFGfWSiqKUyiHQ-40">
          <mxGeometry relative="1" as="geometry" />
        </mxCell>
        <mxCell id="jxF4DCrFGfWSiqKUyiHQ-27" value="User" style="sketch=0;outlineConnect=0;fontColor=#232F3E;gradientColor=none;fillColor=#232F3D;strokeColor=none;dashed=0;verticalLabelPosition=bottom;verticalAlign=top;align=center;html=1;fontSize=12;fontStyle=0;aspect=fixed;pointerEvents=1;shape=mxgraph.aws4.user;" vertex="1" parent="1">
          <mxGeometry x="501.5" y="74" width="50" height="50" as="geometry" />
        </mxCell>
        <mxCell id="jxF4DCrFGfWSiqKUyiHQ-30" value="Human agent" style="sketch=0;pointerEvents=1;shadow=0;dashed=0;html=1;strokeColor=none;fillColor=#505050;labelPosition=center;verticalLabelPosition=bottom;verticalAlign=top;outlineConnect=0;align=center;shape=mxgraph.office.users.call_center_agent;" vertex="1" parent="1">
          <mxGeometry x="900" y="160.5" width="46" height="55" as="geometry" />
        </mxCell>
        <mxCell id="jxF4DCrFGfWSiqKUyiHQ-32" value="emergency code: RED" style="text;html=1;strokeColor=none;fillColor=none;align=center;verticalAlign=middle;whiteSpace=wrap;rounded=0;fontSize=11;fontColor=#FF3333;" vertex="1" parent="1">
          <mxGeometry x="553" y="274" width="129" height="30" as="geometry" />
        </mxCell>
        <mxCell id="jxF4DCrFGfWSiqKUyiHQ-33" value="emergency code: BLUE" style="text;html=1;strokeColor=none;fillColor=none;align=center;verticalAlign=middle;whiteSpace=wrap;rounded=0;fontSize=11;fontColor=#3333FF;" vertex="1" parent="1">
          <mxGeometry x="553" y="190" width="129" height="30" as="geometry" />
        </mxCell>
        <mxCell id="jxF4DCrFGfWSiqKUyiHQ-34" value="emergency code: BLUE" style="text;html=1;strokeColor=none;fillColor=none;align=center;verticalAlign=middle;whiteSpace=wrap;rounded=0;fontSize=11;fontColor=#3333FF;" vertex="1" parent="1">
          <mxGeometry x="549.5" y="102.5" width="129" height="30" as="geometry" />
        </mxCell>
        <mxCell id="jxF4DCrFGfWSiqKUyiHQ-35" value="&quot;I feel very hot&quot;" style="text;html=1;strokeColor=none;fillColor=none;align=center;verticalAlign=middle;whiteSpace=wrap;rounded=0;fontColor=#3333FF;" vertex="1" parent="1">
          <mxGeometry x="570.5" y="71.5" width="90" height="30" as="geometry" />
        </mxCell>
        <mxCell id="jxF4DCrFGfWSiqKUyiHQ-36" value="&quot;I keep coughing&quot;" style="text;html=1;strokeColor=none;fillColor=none;align=center;verticalAlign=middle;whiteSpace=wrap;rounded=0;fontColor=#3333FF;" vertex="1" parent="1">
          <mxGeometry x="572.5" y="160" width="96.5" height="30" as="geometry" />
        </mxCell>
        <mxCell id="jxF4DCrFGfWSiqKUyiHQ-37" value="&quot;I&#39;m having a heart attack!&quot;" style="text;html=1;strokeColor=none;fillColor=none;align=center;verticalAlign=middle;whiteSpace=wrap;rounded=0;fontColor=#FF3333;" vertex="1" parent="1">
          <mxGeometry x="532.25" y="242" width="170.5" height="30" as="geometry" />
        </mxCell>
        <mxCell id="jxF4DCrFGfWSiqKUyiHQ-38" value="EMS with Dispatcher" style="text;html=1;strokeColor=none;fillColor=none;align=left;verticalAlign=middle;whiteSpace=wrap;rounded=0;fontSize=19;fontStyle=1" vertex="1" parent="1">
          <mxGeometry x="492.5" y="32.13" width="197.5" height="30" as="geometry" />
        </mxCell>
        <mxCell id="jxF4DCrFGfWSiqKUyiHQ-45" style="edgeStyle=orthogonalEdgeStyle;rounded=0;orthogonalLoop=1;jettySize=auto;html=1;exitX=1;exitY=0.5;exitDx=0;exitDy=0;dashed=1;" edge="1" parent="1" source="jxF4DCrFGfWSiqKUyiHQ-40" target="jxF4DCrFGfWSiqKUyiHQ-30">
          <mxGeometry relative="1" as="geometry" />
        </mxCell>
        <mxCell id="jxF4DCrFGfWSiqKUyiHQ-40" value="" style="rounded=0;whiteSpace=wrap;html=1;fillColor=#e1d5e7;strokeColor=#9673a6;" vertex="1" parent="1">
          <mxGeometry x="690" y="157.5" width="170" height="60" as="geometry" />
        </mxCell>
        <mxCell id="jxF4DCrFGfWSiqKUyiHQ-42" value="" style="shape=image;verticalLabelPosition=bottom;labelBackgroundColor=default;verticalAlign=top;aspect=fixed;imageAspect=0;image=data:image/png,iVBORw0KGgoAAAANSUhEUgAAA1UAAAEkCAYAAADHHhuLAAAAAXNSR0IArs4c6QAAIABJREFUeF7snQdYVMf391m6ICBiRSGIDcUGYqGJCmIviRHBDmKLvWHslcSGvQexgGLviiiKKKARxUYXS2zYQaXD7r7v2TD+N/xUyu6yd+F7n8dHlDvtM3Pvne/MmXN4SrhAAARAAARAAARAAARAAARAAARKTYBX6pRICAIgAAIgAAIgAAIgAAIgAAIgoARRhUEAAiAAAiAAAiAAAiAAAiAAAhIQgKiSAB6SggAIgAAIgAAIgAAIgAAIgABEFcYACIAACIAACIAACIAACIAACEhAAKJKAnhICgIgAAIgAAIgAAIgAAIgAAIQVRgDIAACIAACIAACIAACIAACICABAYgqCeAhKQiAAAiAAAiAAAiAAAiAAAhAVGEMgAAIgAAIgAAIgAAIgAAIgIAEBCCqJICHpCAAAiAAAiAAAiAAAiAAAiAAUYUxAAIgAAIgAAIgAAIgAAIgAAISEICokgAekoIACIAACIAACIAACIAACIAARBXGAAiAAAiAAAiAAAiAAAiAAAhIQACiSgJ4SAoCIAACIAACIAACIAACIAACEFUYAyAAAiAAAiAAAiAAAiAAAiAgAQGIKgngISkIgAAIgAAIgAAIgAAIgAAIQFRhDIAACIAACIAACIAACIAACICABAQgqiSAh6QgAAIgAAIgAAIgAAIgAAIgAFGFMQACIAACIAACIAACIAACIAACEhCAqJIAHpKCAAiAAAiAAAiAAAiAAAiAAEQVxgAIgAAIgAAIgAAIgAAIgAAISEAAokoCeEgKAiAAAiAAAiAAAiAAAiAAAhBVGAMgAAIgAAIgAAIgAAIgAAIgIAEBiCoJ4CEpCIAACIAACIAACIAACIAACEBUYQyAAAiAAAiAAAiAAAiAAAiAgAQEIKokgIekIAACIAACIAACIAACIAACIABRhTEAAiAAAiAAAiAAAiAAAiAAAhIQgKiSAB6SggAIgAAIgAAIgAAIgAAIgABEFcYACIAACIAACIAACIAACIAACEhAAKJKAnhICgIgAAIgAAIgAAIgAAIgAAIQVRgDIAACIAACIAACIAACIAACICABAYgqCeAhKQiAAAiAAAiAAAiAAAiAAAhAVGEMgAAIgAAIgAAIgAAIgAAIgIAEBCCqJICHpCAAAiAAAiAAAiAAAiAAAiAAUYUxAAIgAAIgAAIgAAIgAAIgAAISEICokgAekoIACIAACIAACIAACIAACIAARBXGAAiAAAiAAAiAAAiAAAiAAAhIQACiSgJ4SAoCIAACIAACIAACIAACIAACEFUYAyAAAiAAAiAAAiAAAiAAAiAgAQGIKgngISkIgAAIgAAIgAAIgAAIgAAIQFRhDIAACIAACIAACIAACIAACICABAQgqiSAh6QgAAIgAAIgAAIgAAIgAAIgAFGFMQACIAACIAACIAACIAACIAACEhCAqJIAHpKCAAiAAAiAAAiAAAiAAAiAAEQVxgAIgAAIgAAIgAAIgAAIgAAISEAAokoCeEgKAiAAAiAAAiAAAiAAAiAAAhBVGAMgAAIgAAIgAAIgAAIgAAIgIAEBiCoJ4CEpCIAACIAACIAACIAACIAACEBUYQyAAAiAAAiAAAiAAAiAAAiAgAQEIKokgIekIAACIAACIAACIAACIAACIABRhTEAAiAAAiAAAiAAAiAAAiAAAhIQgKiSAB6SggAIgAAIgAAIgAAIgAAIgABEFcYACIAACIAACIAACIAACIAACEhAAKJKAnhICgIgAAIgAAIgAAIgAAIgAAIQVRgDIAACIAACIAACIAACIAACICABAYgqCeAhKQiAAAiAAAiAAAiAAAiAAAhAVGEMgAAIgAAIgAAIgAAIgAAIgIAEBCCqJICHpCAAAiAAAiAAAiAAAiAAAiAAUYUxAAIgAAIgAAIgAAIgAAIgAAISEICokgAekoIACIAACIAACIAACIAACIAARBXGAAiAAAiAAAiAAAiAAAiAAAhIQACiSgJ4SAoCIAACIAACIAACIAACIAACEFUYAyAAAiAAAiAAAiAAAiAAAiAgAQGIKgngISkIgAAIgAAIgAAIgAAIgAAIQFRhDIAACIAACIAACIAACIAACICABAQgqiSAh6QgAAIgAAIgAAIgAAIgAAIgAFGFMQACIAACIAACIAACIAACIAACEhCAqJIAHpKCAAiAAAiAAAiAAAiAAAiAAEQVxgAIgAAIgAAIgAAIgAAIgAAISEAAokoCeEgKAiAAAiAAAiAAAiAAAiAAAhBVGAMgAAIgAAIgAAIgAAIgAAIgIAEBiCoJ4CEpCIAACIAACIAACIAACIAACEBUYQyAAAiAAAiAAAiAAAiAAAiAgAQEIKokgIekIAACIAACIAACIAACIAACIABRhTEAAiAAAiAAAiAAAiAAAiAAAhIQgKiSAB6SggAIgAAIgAAIgAAIgAAIgABEFcYACIAACIAACIAACIAACIAACEhAAKJKAnhICgIgAAIgAAIgAAIgAAIgAAIQVRgDIAACIAACIAACIAACIAACICABAYgqCeAhKQiAAAiAAAiAAAiAAAiAAAhAVGEMgAAIgAAIgAAIgAAIgAAIgIAEBCCqJICHpCAAAiAAAiAAAiAAAiAAAiAAUYUxAAIgAAIgAAIgAAIgAAIgAAISEICokgAekoIACIAACIAACIAACIAACIAARBXGAAiAAAiAAAiAAAiAAAiAAAhIQACiSgJ4SAoCIAACIAACIAACIAACIAACEFUYAyAAAiAAAiAAAiAAAiAAAiAgAQGIKgngISkIgAAIgAAIgAAIgAAIgAAIQFRhDIAACIAACIAACIAACIAACICABAQgqiSAh6QgUF4JCIXCr+8GHo8nlEU7hUKhspKSklBW+cuizsgTBEAABEAABEAABL5FAKIK4wIEQOArARI6u3fvHrx///6hKSkpNVu2bHlv4sSJy9u3bx8nLUypqalVli9fPvfSpUudNTQ08rp3735m7ty5a3k8Xoa0ykA+IAACIAACIAACIFCWBCCqypI2ygIBjhOYOnXqug0bNoxXU1NTyc3N5SkrKysZGBh8DgkJsW/evPl9SatPoq1jx46h165d6yAQCJRUVFSU+Hy+kr29/fWrV6868ni8LEnLQHoQAAEQAAEQAAEQKGsCEFVlTRzlgQBHCURERLRxcnK6npWVpUJVVFVVVcrPzxfVdtCgQQf379/vKmnV9+3bN8Dd3f0Qj8dTysvLUxIKhaJy6OfVq1fPmDFjho+kZSA9CIAACIAACIAACJQ1AYiqsiaO8kCAowS8vb3nLliwYBmJnJycHNEuEl20o1S/fv3HDx8+bCDJ+Sc6pzVp0qQdGzdu9CyMgMrq3bt38IkTJ7pxFA+qBQIgAAIgAAIgAALfJQBRhcEBAiAgIjB9+vSVPj4+M2kXicz+yCxPTU1N9LeBgcHjt2/fSiyqxo8f/9eWLVtGUr5UBgk2yp/KbNq0adT9+/fbSSLc0JUgAAIgAAIgAAIgIA8CEFXyoI4yQYCDBLy8vFauWrVqJpnkqaurK+Xm5n6t5eTJk/9av379aEmrHRwc3KVv374XsrOzRVmRmKLy6O/27dtHXb9+va2kZSA9CIAACIAACIAACJQ1AYiqsiaO8kCAowRIVK1cuXImmf/RReep1NXVhcbGxvERERGda9as+UbSqpMJ4LRp09auXbt2Mu1W0VkquqhMKyurqBs3bkBUSQoZ6UEABEAABEAABMqcAERVmSNHgSDATQIzZsxY5ePjM4N2jlRUVPheXl5bjI2N744dO/agNN2dC4VClQsXLnQ/d+5cx/Pnzw94+PChMZVJoioqKgqiipvDA7UCARAAARAAARD4AQGIKgwPEAABEYGZM2euWr9+/Qw646Sjo/OZ4knJ8nwTuVfv2bPnqXPnzvWk8tu2bRt18+ZNiCqMRxAAARAAARAAAYUjAFGlcF2GCoOAbAjQThW5NafzTdra2p+/fPkiU1FFrejXr9/ZEydO9CCnFSSqYP4nm75FriAAAiAAAiAAArIlAFElW77IHQQUhsC0adNWrVmzZgZVuHLlymUiqnr37n3m9OnTPUlUWVpakvkfvP8pzIhBRUEABEAABEAABBgBiCqMBRAAAREBZv5HDip0dHTS09LSdGVp/kdldu/e/dylS5e65+bmCi0tLW/dvn0bogrjEQRAAARAAARAQOEIQFQpXJehwiAgGwKL/r0WkKdzFRWV3Pz8fBJVObIp7d9cHRwcwiIiIjrk5+cL7OzsIsLDwzvIsjzkDQIgAAIgAAIgAAKyIABRJQuqyBMEFJDAmjVrJk+bNm2NhoaGMp/P57948cKwVq1ab2XZFAsLi/t37txprqysLOzZsyeZAvaRZXnIGwRAAARAAARAAARkQQCiShZUkScIKCCBI0eO9P/1118PKSkpKSspKfEjIyNtbGxsbsqqKeT9r2rVqm/S0tKq8Xg8wahRo3y3b98+RlblIV8QAAEQAAEQAAEQkBUBiCpZkUW+IKBgBO7fv2/WokWLGA0NDRUyx9uyZcuYMWPG+MqqGYmJiXWaN2/+PDc3l95D/NWrV8+aMWOGj6zKQ74gAAIgAAIgAAIgICsCEFWyIot8QUDBCAiFQo3KlSt/yMjI0FZRURG6u7tv9/X1HSerZpw6dapXnz59ThfkL7hw4UJvZ2fnc7IqD/mCAAiAAAiAAAiAgKwIQFTJiizyBQEFJNCmTZvrt2/fbi8UCpVatWr1IDo6uqWsPAAuWLDgD29v79kCgUBJTU0tPykpydjExCRFAbGhyiAAAiAAAiAAAhWcAERVBR8AaD4IiBPw8vJauWHDhhk5OTnkATD/2bNn9Q0NDZ9Jm5JQKORZW1vfio6OtszNzVVq2rRpfGxsbDM6WyXtspAfCIAACIAACIAACMiaAESVrAkjfxBQIAKhoaEdO3XqdInH4ykLhUI65zRzxowZa6XdhMePH/9kZmb2ODc3l5xiCMePH79p8+bNk6RdDvIDARAAARAAARAAgbIgAFFVFpRRBggoCAE6V2VkZPT0xYsXtTQ1NZXMzMzu3rlzp7U0d5Bol2rFihVzf//996WEpVKlSoIzZ850cXR0vKwgmFBNEAABEAABEAABEPgPAYgqDAgQAIH/EJg5c+aaVatWTSbX6srKyvwLFy50cXJyCpUWJqFQqG5qapr8/PlzIzq7VbNmzWcvX75swOPx8qRVBvIBARAAARAAARAAgbIkAFFVlrRRFggoAIF79+41trKyepCXl6dG1XVycgq7ePFiZ2ntVh0/fryfi4vL8fz8fMpe4O3tvXjOnDlLFAANqggCIAACIAACIAAC3yQAUYWBAQIg8D8EXF1djx44cOAX+oWmpqbg5MmTXbp27SqxeR6Z/nXs2DEsLCzMnvI2MDD4HBUV1cjU1PQNugEEQAAEQAAEQAAEFJUARJWi9hzqDQIyJPDgwYP6Dg4OtzIyMqrk5OQotWnT5sHZs2dtatSokV7aYklQbdmyZfyECRM2qqurKwkEAuHSpUu9fv/999WlzRPpQAAEQAAEQAAEQIALBCCquNALqAMIcJDA1q1bx4wbN26LioqKMp/PV/r111+PHz58eACPx+OXpronT57s1r9//9M8Hk81Ly9PydLS8sbt27fteTyeyA4QFwiAAAiAAAiAAAgoKgGIKkXtOdQbBGRMQCgUqvTs2fPM+fPnnQUCgbKamprSmDFjNm3cuHFySc5X0Q5VaGiojaura9D79+91KNivjo5O+o0bN9qbm5vHyrgZyB4EQAAEQAAEQAAEZE4AokrmiFEACCgugbdv39Zq37595LNnz+opKysrkXOJYcOGHVy5cqVncUwBhUKh8uHDh3/x8PDYk56ersXj8ZR4PJ5wx44dnp6enn6KSwY1BwEQAAEQAAEQAIH/IwBRhdEAAiDwQwKxsbHmHTp0uPbhwwd9FRUVJXKDbmZm9tDHx2dKt27dgr9lDki7U0+ePDGeP3/+siNHjgwhcz/aoaKzVIMGDdq5a9euUSSugB4EQAAEQAAEQAAEygMBiKry0ItoAwjImMCxY8d6ubu7H/706ZOmqqqqSCAJBAJB8+bNY/v27Xu0Y8eOf9esWfPVp0+ftOLi4pqHhIT0OHHiRA+BQKBOIozOZFEwYVtb2+CQkJCfeTxeloyrjOxBAARAAARAAARAoMwIQFSVGWoUBAKKTSA4OLjzyJEj96akpBjSThS1hgQT/SGzPtqFIk+BJLpIRLGL/p2fn8+fNGnShnXr1v3O4/FyFZsEag8CIAACIAACIAAC/yUAUYURAQIgUGwCKSkp1efOnet98ODBoRkZGRrKyso8ElMkosjEj5xZ0LkrElpkKkj/b2lpeW/9+vVT7O3trxS7INwIAiAAAiAAAiAAAgpEAKJKgToLVQUBrhB4+vRpvY0bN449duzYz/QzeQrk8Xg8ElW0a6Wpqfm5c+fOl0aMGLG7T58+5+A2nSs9h3qAAAiAAAiAAAjIggBElSyoIk8QqCAEyAzwxYsXhiYmJk+VlJRUaWfqr7/+cvX09DwOM78KMgjQTBAAARAAARAAASWIKgwCEAABiQiQ2/TKlStnZ2ZmqpFHv6tXrzrY2dldkyhTJAYBEAABEAABEAABBSIAUaVAnYWqggAXCZCoUlVVzebz+WqVK1cWHj16tGPXrl2vcrGuqBMIgAAIgAAIgAAIyIIARJUsqCJPhSdQ4N1OWUlJif4I6A/iKn27W4VCoTqPx0vX0NBQy8nJEVy5cqVjx44dsVP1DVyhoaF2b968Mc3MzBSoqqryzM3N77Vu3fq+wj8wpWzAjRs3Wj979qzVx48fRTmQcxM6l0eBpjMzM0U/l+QSkoeUgovO+JUk7ffuzc7OVtLR0aGzgnk9evQ4YWBg8Fka+SpCHgXmvfrv37+vn5KSop+RkVFJKBRqa2hoZGtqan6pUaNGmqGh4bOaNWu+UYT2SFLHs2fP9nr+/HnNSpUqCS0sLKJatGjxQJL8yiJtZGRk29jY2Obq6urCZs2a3eLSu+bevXuNnz17Vr8sOJS2DDU1NR45XmrQoEGymZlZYmnzkXa6u3fvmqekpPxEdZPGRR56xS8VFZV8NTW1z61bt36oq6v7QRplVJQ8pPLR4SosOjzv6uq6KyUlpUlaWhq5fOYxj2TMJXRR3136PXMbTe2kf9MfFRUVIY/Hy9HV1f1iaGj42tTUNNHU1PRl06ZN77dq1erBtwKicpVTaeolFAq1OnfufPrx48eN6BwNnak5dOjQz4aGhu9Lk5880zx//rxqTExM+7///tsmLi6u6cuXLw3evXtn/OHDB93s7GzNSpUq5erq6qZVrVr1ffXq1VPr16//qHXr1n83btw4ztra+nZ57GuhUKianJzc6O+//2717Nkz49evX9fQ0NBQppc4uU3X1tZWysjIELlPz8vLU96zZ89vmZmZ5KxCeO3aNQeaiJ49e9alwBOgkL20Kb5VtWrVPtWoUeOplZVVDH3kK0rMKj8/v+EeHh67STAQB7o0NDRy4+PjG5mamv4jz2dAHmW/ffu2lomJyT+ZmZnqBSxEY4u9Z4mTuGt+edSRymT9Rd+OsWPHbt28efNv8qqLrMt9/fq1dkxMTNtTp071unbtWtfk5GST7OxsbfLs+b2Lnm0DA4PUBg0a3HFycrrZvXv3s+3atbtZns5UhoSEODk5OV1k8wFNTc1sCm5eu3btd7Luk9LmT4LFxMQkQVlZWZXew8rKyjkfP36sXaVKldTS5imtdMnJyUbNmjVLou+rtPKUVT4Fc8S82NhY86ZNmz6UVTnFzZfEqKWl5QOyDClumu/dJz7/FVuPEr3z6A+NGyMjo3fW1tYhvXr1uuDg4HDyp59+kvv4kbTdskxfrkVVdHR009atW8cwAUUgxQKXlpqr+EAU//AXxOOhVc0MBweHMGdn5+Cff/75qJGR0ctSF8bRhNHR0S1bt259lz2IxMTX13c4xTHiaJX/Uy2hUKhGAW137drlcenSpe5ZWVkkCEQCmvUjS8D6W/ylw35Hk2FXV9cAV1fXg4qwcvmjviEhdfHiRYf9+/cPDQoK6v7x48fqeXl5tOAvpAklXTTJZRxo7NOzRXwEAoGQ3KsrKysLg4ODOyYmJrb87bffNrBFCEpL6SgN5UWigvLS09NLp/NXLi4ugc7Ozsdq1aqVoQjjp6R1pAWepk2bJsTHxzcQH1fE5M8//1wwe/bspSXNU9Hvv3PnTisLC4s71A5xoUk/07gpqaBiC2aMCxtnbIJAwoD+j/IumGR+Fbc/mnSw8U5pnZ2dzwUFBfVUdPbi9aexefbsWafDhw8POXHiRL8vX75UZqJffKwWPOdfk9IuIusjup+9P+mGunXrvu3UqdP5Xr16nXJxcTnL4/GyFZnZ3r17hw4bNuw/37bExMQmjRs3TuBquy5dutTZ0dHxklj9hAkJCfXNzMyeyLvOV65cse/YsaPIRFxDQ+PrYgr79hZ+luVZXwoZkpubqxQcHOzctWvXi/KsC5UdFBTUgxYu6Hlj809WR/p9waK/6B1X1FWYc8E3/es3ntKze+h3enp6Ge7u7junTp26sjzOa4viVZzfl2tRFRUVZdGmTRvaSRDtUNFgE19xK86D+6OdLPHJZeFJgNiKVl67du2ujRs3zm/gwIGHy8vqHU2ILC0t74iLqp07d47y8PDwLc7Ak+c9u3fvHjZ//vylr169MmaTAjYWmAigSQJ7wbNJmbigYPcxEUbjytHR8fKCBQsWOzg4KNR5IjoTdeDAgQErV66cGx8f35R2nvh8vujd8K2JKv0ftZvxoI9ibm6uUCAQ8FRVVUWiKiYmpuXkyZM3iE+WxcUp/UyTMvpYEWcejyeoWrXqu2nTpq338vIiMVauxNWBAwd+cXV1PUptZpN7NvYaNmz4MCkpqXFFMy+NjY1tZW5uLhJV35oIsA/8j94VLB4ajSHa5RKfoIlP8ikP8YkHG5dFWSpQ/pqamkq080pXnz59zpw6daq3PN9f0ipbKBRqbN26dejq1avnUFgEJoyYeCJeNFbFF5No/NK/xSds4pzFGbN3R506dVLmzp27aNy4cf6KuiutiKIqJCSkk5OT02Uuiqpr167Z2dvbfzURr1SpklJWVtZ/FlekNc4lzYeNY66IqnPnznXv0aMHiSoePYvMaqTw97rw++97HOg+ttnAvkns/9izrqWlJTLHZpeqqmruvHnzVixcuPAPRV8wkXR8FE5fEURVdOFGF0wC//Ox+NGA+9YORVEdwT7WVBZ9kGnQ1q1b99HatWtn0e5VUem5/ntFFFUvX7408vT03HbhwoUeNKmiCYP4JIwxFxdW33oxfev/xCfLXbp0CVuxYsWYli1bcsYG+3vj6dGjR8Zjx471v3z5sh0JKfaiJi5CoVBAokdDQ0OopaWVrqKiksdWsOmZoJ+JI9nrv3nzphrZn/P5fGFoaGjHe/fuNfHx8VmSlZWlTPeyfPPz85WzsrK0c3JyVAsmxCTgRAKrYMFDYGpq+mTDhg3je/bseaG8CI2pU6euWbt27VR6DzAxyoImE7PTp0/36t279zmuP/fSrB+Z3bZq1epxamqqHhtX4s9WcSYF4qKd1Y3GLk36iTPxprGVlZVFZ62+fu/YJK4gzX9+J95G8V1r+nn27Nkrly5dOkuaHMo6L1pE2bVr1/DFixcv+Oeff0zEyxd7DkX/zVbD2fPO7hXfTWSmvUxosd9Rn7Ldafq5Ro0aL2bNmuUzbdq0zXQ+razbLUl55URUKSUkJJhyYaeKiSrx8VbwrAnpO0Ljjr49RS16SNKnxUnL5m/q6upkpt2sfv36cjf/KxBVFPvx6xy2QPiJrEXE36VFtfFbc9vC7132b/Y3fbfoWady2rZte+fAgQNudPylqLIqyu/Lvahq27ZttLj5R7169V7VqVPnGfsAMLMmsQ7/etC50CD4yop9YIRCYaXPnz9X/vDhg87Hjx9r0EdcfBWfpS+8C9KxY8eLdAbFyMgoWVEHmqKJqosXL3bt1avXAaFQWIVe1mzCIL7bWNBPfG1t7fTatWunqampZVSqVClLIBCokhBIS0ur/PnzZ92cnBytAqHwH3M4cVGmq6ub/eeff0787bffOLtzl5CQ0MLR0fHU69evfyoQmUI6hC0QCPhWVlYR/fr1O+3s7BxRpUqVJGNj47QfjFWNSpUqfc7OziYbb8H169c7WFtbR9Dkjaz+vpFOMzo62iQxMbH9sWPHupHI/fz5s3bBZIyEmVLlypXz58+fP9PLy2u9ogsrmkBERER0nD179hKapxb+kNHEgnazw8PDOyjq+6C09Y6Li/spNTW1fnp6ukgAFb7EHU+I/445oaDf088k/J8+fVp7xIgR++jdzsQAmWCPHz9+Be02sfxzcnJoR/VrdkU5t6D8KH1eXl6eo6MjnRX69+CXAl6xsbENxo4du4vGJJuwFpyL/I/5XuXKlWnilNm6det7DRs2jGnWrNkDIyOjVC0trQwej5eZn5+vnpeXp/3y5cuqDx8+bBkdHW2ekJBgmZqaWomwMLHLJs3sG0y/q1+//r19+/YNtbKy4ryjB9bF5UVUxcfH12vSpAnFFJTrVXinSlNTU3j48OFedH6Zzc0Km+HLosJFObOhBXE9PT2lOnXqPG7YsOEjWdShpHkWFlVVq1bN2rt3bx9a3CRRlZeX969NfjGubzioEM1p3r17V+Xdu3eGiYmJZtevX29P8z22KMXmPuw7pq2tnXr+/Pk+9vb24cUostzfUizwikqBzP/atWsXzZQ7veB37tzpNmzYsAPSbBNNHr98+aJPH6z79+83j4qKsoyMjOwaFxdnyl4Mhc1btLW1sz09PX2XLl26SBG9qyiKqKJzQvPmzVvs7e09h5mA0nigP/RvPT29L/369TvRtm3byGbNmt1t0aLFD73d0PmDly9f1n7w4IFRUlKSVXBwcNewsLDO5BVgz0i2AAAgAElEQVSLJl4k2JgZDU0kRowYsdvX1/c3Lpm90Hjdu3fviJEjR64TCAR0fkK0kUTnw4YNG7bN09Nzv6Gh4UsyySvOc1Iwr83R1NRUy87OFkRGRtrb2NhEFjftx48fdS5cuNB306ZN4yMiIqzI6pDSqqmpCcaMGbNl48aNMxXZxMDGxiZMQ0ODvCI6ECsaF02aNEmKi4trxD5Q9H/BwcFdnJycQorDDff8LwHa+TIyMiJHOV8dEk2aNGnthg0bplV0XvQe3LRp07j58+cvy8zM1GVmt4VMeAW2trY3nZycgsnLYZs2bUrkcInejXRmJzw83PHcuXOdIyIiOr99+7YqY89MA2mXMCcnh+/p6blz0aJFcxXBuRFElXSfICaqaCeowMQ0VyAQVOHSd1K6LZZeboVFlY6OTurnz5+rFfd7XZqavHjxwuDKlStOmzdvnnn9+vXWbF7LFk3U1NTyduzYMdrd3X13afIvT2nKvahq3769aKeKJtC06nDo0CFXFxeXg2XRiUlJSU3WrVv3W0BAgDutxLMyxU1PqlSp8ur48eODO3XqdKUs6iStMgqLKsrX19d3FAlFaZUhjXw8PT3/2rVrl6e4+QqNh6pVq76ZNm3a6rFjx/5VtWrVT5KU9erVq2qHDh0aumLFiilv3741Ft/FonydnZ0vBAcH9+CKl8DVq1dP9vLyWqOiokI7SfRs8MePH79u9erV80vzUSORRqJHWVlZjYTQ2bNn7ZycnK6XlCkJDj8/v6GzZs3akJaWplOwYqk8YMCA44cOHXLh8XhFn7wtaaEyvv/vv/+2ateuXRQznaBn39TUNJbOOzRp0uRReno6a6eStbX1LXKBrOg7czJG+t3sU1NTqxgYGHykRQLmpGLatGlrfXx8KrSo+vz5s0Hnzp2P3bp1q4P46j/bTdLW1s51dXXdM2XKlBXNmzeX2mo8OQMKCAhw8/b2nv/48eMGzJyLvR/pmahVq9bzM2fO9La0tLwnr3FTnHIhqopDqfj3FN6p0tLSysnIyCBRpdAOTYpPoPR3FhZVenp6qWlpaTIVVay29K1ftWrV5Hnz5i2nY6rM6ocdo/Dz8xvh4eGxp/StU/yU5V5UtWnTRnSmipngHT582G3AgAFS3akqahiQ62AfH5+ptFKYlZWlw5wg0N+k9HNycvK3bds2bezYsRuLyosrv1cEUbVt27bfxo4du5mYidtuOzo6Xjl8+HA/ScVU4b5IS0vT9/T03H3kyJE+9Dt2fobG3ooVK6ZOnz59nbz7LygoqGuPHj1OExKa3Kirq2fu379/WP/+/Y+VdjJPYkhXVzcnMzNTjc/nCyIiIuxsbW1LLKoYm9u3bzcZOHDg6eTk5HpsdXvmzJl/rFy5ckFp6ygv7lOmTNm0bt268VQ+c7zg5+c3zN3d3X/ixIlrN27cOEXchj00NLSToi2wyItt4XKfPHlSpWHDhh/z8/O/ftemT59eoUXVq1evfrK3tw9+9uxZ44LwBiJsbGFv4sSJ2728vJbK0pPXkydPNI8cOTLxjz/+mJeamqpb2NmFrq5uur+///C+ffse48pYKlwPiCrp9kzhM1Xa2to56enpEFXFwFxYVNWsWTP19evXZSKqWPWo/3r37n3o06dPtWkeQc80vV/ouMSDBw9acuHsWTFQyuSWci+qbGxsoml7mU2qAwICXIcMGVImO1WFe4zElZub2/5Lly51Ev8dq9vixYvnLVy40FsmPS3lTLkuqh49etSwWbNmd3JyckQ7hMypQps2bW6eOXPGqXr16l+kjESUHa3kTJ8+3WfdunVTxN0MV6tW7e27d+/qU5BcWZRbnDxTUlKqW1lZ3X379q1hgZcfwdatWyeMGTNma3HSf++eApM2OmdCJ4wFoaGh9g4ODsUy//tenk+ePDHp0KFD+PPnzw1JlNJuWlBQkKOjo6PCeFYk72o1a9Z81qpVq4c3b960TEtLq2RsbPz8n3/+aUQrshSrpWnTpo9zc3NVmeCiWDgXL150lqQ/Kmpa2qnS19enKMIiE0sSq+PHj6+w5n/JyckNOnTocPndu3dGzOstW1wkV+C7d+8eYW1t/XdZjRd6pidMmLD17Nmz3cQ9OxbsXAmOHDnya//+/Y+XVX1KUg5EVUloFX0vE1VsQUlTUzMnKysLoqpodErioqpggSQ1IyOjTEUVlfv8+fM6dnZ24c+ePTMRd0jzyy+/HD127NivxWhKubylXIuqW7duWVpZWd0W77l9+/a5DR48uEx3qsTLFwqF6vPmzVtIbmxZoEv2e/rQ0Nmf2bNn/8n10cZ1UdWrV6+TZ8+epcObIlfLxLZZs2Yx58+f7yRrG34SViNHjtxFOxJsEkO7VkuXLp03e/ZsuYhmEj4jR47c6e/v704TLC0tLWG/fv3279u3b5ikttiUt7q6ek5+fr7IUQXFIJFUVNH4P3nyZB9avVZTU1MhEdiwYcP4hIQEC0VxFODn5+c+ceLEzf379w8iQfju3Ts9Hx+fmdOnT1/Nnu8hQ4YEBAQEDBZz8S28e/dui5YtW8Zw/R3AtfrRTnGVKlU+sAPVNGGbMmXK2rVr11Y4878XL17UpfhvT58+FXn3Ew+NMG7cuG1btmyhHVK5ONzYvn2758SJEzfy+XxN5sKZxr+mpuZHcl5jZGQkdw9rhcf2t0RVQkKCmZmZGWe9nn3DpboSFx1VFDgxycnLy4OoKsZLtfBOlb6+furHjx/LXFRRVWNjY5u2bdv2RkZGho5YOAXhnTt3LC0sLO4Woznl7haIKjl1KXm6GTlyZCB5D6QqiLkGFgQGBv7s5uZ2Sk5VK1axXBZVd+7caWhnZ5eQkZFBZ31EK9bkVSgkJKSVtbV1fLEaKOFNr1+/1razs7ufnJxsylbjTE1NXz569KiePNwJ371717xdu3Z3lZWVyZMhufd/eOfOndbS2LEjEamurp4tbVFFYm348OGBe/fuHVjAULh9+/bxku6sSdi1xUpOdTc3N49JSkpq2qRJk8dkDnH+/Pn2WVlZxjwe7zPLpCBAeay4RyU3N7cDgYGBbsUqCDd9JQBR9S+KDx8+6FpbW9+gM730XaGLOWvy8vJasXLlyt/lPWyCg4M7DBgw4Bid92J1IZPEGjVqPA0LC7MxMTFJkXcdxcvHTpV0e0M8+C9EVcnYcklUUc0DAwN/dXNzO8xaQQ67nJ2dy008v5L1jljcjpImVIT7ubhTJc6NhAkFk3zz5k0dduCP1D6ZikVGRrbi2oelcN3Fg//S77jiqMLb23vJ3Llz57P60oR81KhR23fs2DG2LMftqVOn+vbp0+eE2Cqx8MqVK7YdO3Ys9Xmj0tZ/+PDh/nv27BlC6VVUVARBQUG9nZ2dpRIXibx+qaurZ0lbVFFdnzx5UsvKyiruw4cP+tSPJFBiY2PN5CFMS8KeRb2nNEzYz5kzx2fZsmUzCudjZ2cXERkZacNMVFVUVHLJRNDQ0PCfkpRZ0e/99OlTVT09PZH3P8a9ou1UkZh3dXU9ePDgwQHioTxItC9ZsmTJ/PnzF3HlXOKDBw+aODs7X0lJSakhPnY7dux4LTQ01IEr9aS6QVRJ9+0CUVV6nlwTVdSSbt26XSYroIL5BS3i8BMTExs1atTocelbqpgpsVMl5367f/++qbOzc/j79+9rM1ffVKUePXqEnj17tgtXPMYVxsTlnao2bdpERUdHWzHTElqopR2i+vXrPyvL7iZTT5oYp6Sk1KKJNZ2dW7x48e+zZ89eUZb1oMlmrVq1ntH5Mppc2dvbR4SFhdlLa9IiS1FFnObMmbPszz//nKOhocHLzs7mnzp1qnefPn2CypJhScuyt7cPo7hTtApbENw4Oz4+vlGDBg2eF86LzKHICyWL+0GT4fHjx2/csGHDpJKWW5Hvh6hSUtq2bdvYsWPHbi0sqObMmbPqjz/+8OLa+Lhx40brLl26XCY37yxYMNVx/fr10ydPnryGK/WFqJJuT0BUlZ4nF0XVzZs3Wzk4ONzKy8tTYXHGli1btnDevHkUm7FCXRBVHOju69evW3br1u3Kp0+fdKg6zD3lqlWr5s2cOVMuZ3CKwsJVUUVCRlVVNZ3P55PTBFEzHBwcrl25ckUugVXHjBmzKSAgYHxGRgZVRXjgwIGhrq6u+4riK83fU0yqYcOG+RWs4AtOnDgxqF+/flJz1iImql4rKSk9uHz58vhOnTpJLcDks2fPDBs2bPg4JyeHggwLXVxc/OmQvbREoTRZU140UWzfvn0U2zEhsyYXF5e9e/bsGf6tst69e6djYmLyIicnR5d9kPT09D7Hx8fXl/X5P2m3XZ75fUtUTZ48ed26deumyrNeZVU2OUJq2LBh0pcvX3RIoLPD425ubv4BAQH0vBQr7lxZ1ZeVExwc3Llbt27nNDQ0NOj8a4FX0tw7d+5YmJubx5V1fb5VHkSVdHsBoqr0PLkoqqg1nTt3vnD58uUurGXNmjW7HxMT07L0LVXMlBBVHOm3q1ev2tLqO8XnEXOxnPv333/btmvX7hZHqvm1GlwVVffu3WvWsmVLClop+jjTtX379lFjxoyRS/wsoVCovXTp0nF16tTJsrKyCpOHAwIXF5eThw8f7kM8fvrpp/dPnz6lcz1Z0hpTBaIqhs/nnxQIBHf/v9ntKSsrq0xp5U/59O3b90xQUFBPWs3W09N7+/79+7pcNQHs1KnTxfDwcCfaoaL6ampqZsXExLRo0KBB8veY/P7774uWL1++kMURor+nTZu2ZuXKldOlybE851XRRdWoUaN2/vXXXx6sj2mXtGfPnqdPnTr1C9djvPn7+w8bOnToHjb+CwKnk7Ofr+2R59iFqJIufYiq0vPkqqjauXPnqJEjR+5gLaOAwImJiUampqZvSt9axUtZrkVVVFSUBYtTxbpG3t7/fjREdu3a5eHu7r6T7mFxRBo3bkwez1pybQLJVVG1d+/eAR4eHofI1I4cMtDHOTw8vJ2Njc1NxXs8pVPjatWqvU5NTa1JTLp163bwxIkTrtLJ+d9cSFRpaGicyc3N3fX/LVeJs9R2qVg9N2zYMG7SpEmb1NTUlMle+/79+y24sootzpLORtnY2EQwT0h6enpZXl5e3nPnzv3hjjOJbyMjo+cvXrzQZ2nJoyI5OjE2Nn4lzf4qr3lVZFGVmJho1qRJkxiBQKDChImJicnjJ0+etOLxeDIJHyHtcTRw4MAjBw8e7M8WxNatWzeNzsRJu5zS5AdRVRpq308DUVV6nlwVVeQoqHr16h/y8vJ47B0UEhLiTGFCSt9axUsJUcWhPqNDxp06dQqOiIjoQm6vmUfAPXv2jBg+fDinolRzVVQFBAQMGTp0qL+4N7VHjx41qqjB6OhFV61atff5+fnkBkzo7U3z+7lSddlfsFP1Mi8vb4uSkhI5v5D6zmp4eHh7JyenyOzsbB452jh27NgALgYL7dWr1+lz5871YgG+KRhyXFxckyZNmiQV9apZsGDBkqVLl86nscs+SnPmzFnxxx9/yN1bW1F158LvK7KocnNzCwwMDHRlMQ9JmAcFBTkoUlw3imPl6Oh4sV69eq9nzZq1yNnZ+RIXxhXVAaJKuj0BUVV6nlwVVdQiDQ2NzJycnEpsYWTXrl3u7u7uu0vfWsVLCVHFsT57+vRpvUaNGsXz+XwNMh8iYfXTTz8lPn78uCmXbOK5Kqr8/f1dhg0bJjovxITV3bt3m8vD7I4LQyshIaGxmZlZrAopEYFAsHPnzuEeHh4B0qwbiSo1NbUsPp9/VVlZeU9gYOB+FxcXvjTLoHNVFDhXRUWFdqoEGzdunECBRKVZhqR5kSMKc3PzeIFAoMxEUadOna6SJ7Pi5P3ly5fqNWrUeJSVlSU6W0mXgYFBKu1W6evrpxUnj4p8T0UVVXFxcQ0tLCzicnJyVFn/Dxgw4Ojhw4cVLgAnLSxy8awkRJV03ywQVaXnyWVRZWho+Oz169dGLITD8uXLZ/3+++8rS99axUsJUcXBPhswYMCRo0eP9mcDk1Yf9+/f7zJgwICvsQDkXW2uiqrr16/bWltbhxMfttO3f//+XwcNGnRU3szkUT555WnXrt0dYkGi/OTJk7/07NnzpDTrIhQKVVVVVbMEAoEqj8fzj4yMnNC+ffuvsZikURbF3qlWrdon8momEAiEdNZoxowZnDANYu3z9PT09fX1Hck8rxHzbdu2jRw9ejQ5CSnW9dtvv23cunXrBHYz5bFw4cJZCxYsqFAfpmLBKnTTt+JUVQRHFTRmtmzZMoG977S0tATh4eHNLS0tOeHkoTR9ybU0EFXS7RGIqtLz5LKosra2jr5+/bqFjo6O0pcvX5S8vb0XzZ07d3HpW6t4KSGqONhn58+fd+rRo8dFElVsG7Vr167BwcHB3bhSXa6Kqrdv31auXbv2Jx6Pp8w8qY0aNWrbX3/9NY4r7MqyHn///XdLGxubO+SJjkzRTpw48Wu/fv2OS7MOhUTV+9DQUEsHB4f/cR0uSZk0YdbX1//IXJRv3LhxysSJE9dLkqc007579672Tz/9lJyVlaVF+dJCiLKy8qeXL18aGxgYFFtgkglU48aNk3Jzc9WYOKtbt+7L58+f1+fxeDnSrHN5y6siiirydlqtWrVXnz59MmDvu19//fXQkSNHBpa3/pVneyCqpEsfoqr0PLksqgwNDV+npKTUZE7CyDJm5MiRe0vfWsVLCVHFwT4TCoXK5ubmsfHx8WaselpaWnkPHjzgjCcVrooq4mVmZnb/0aNHzelcGk1uNTQ0PiclJVVI99Q0Sa9Xr94jZWVlMpsT+vr6jqYdFWkOe6FQqFawU6VCu2HXrl1rbWtre1eaZcTGxjYwNzd/WLDIIPD39/ccOnQoOcbgxLVo0SLvRYsWzRH3OjllypSN69atK3GsKVdX1/3Hjh1zo4DgLCyAr6+v58iRI0VObHB9m0BFFFW089y3b9+jzNyUyISFhTk6ODhcxjiRHgGIKumxpJwgqkrPk6uiio4BqKioZCsrK6vSAg8tgFJdu3Xrdr70rVW8lBBVHO2zpUuXzp0/f/4yqh7zBvbXX39NGDVq1GYuVJnLomrx4sXzFy5cuET80DbFCQoICPhmnCAu8JRVHYRCYSV1dfXPfD6fTPMokO7ypUuXzpZmeUxU8fl8FdJuoaGh9g4ODpHSLOPChQs9nJ2dz9KLWigUCoODg7tw5SC7UCjUqlKlysv09PQqdA5SU1NTKS8vL+/hw4cNTU1N/ykpBwoLYGFhcZ92F2m3mnaszMzMEmJiYuhc5b9xAnD9D4GKKKoGDx7sHxgYOIQ5Rqldu/bLZ8+e/cTVoPGKOmwhqqTbcxBVpefJVVF17949SwsLi9sFYUSUsrOzhQkJCU3MzMwSS99axUsJUcXRPktOTm7QuHHjh+xcFW2n9u3b98TJkyd/5kKVuSyqkpOTjSwsLCgIpiYJUmJIKydcMxkri36kg98NGzZMePr0aSMqz8bG5lJYWFgXaU7OxUUV7VTRB1PaomrhwoWLlyxZsqDA/I//9OlTIxMTk5SyYFhUGRRcdsqUKWvoPrZT5ebmdjgwMNClqLTf+33Xrl3PBAcH9xTf+YqIiHCwtbW9Wto8y3u6b4kqcsm9du3aaeWx7WTR0KBBg0ePHj0yofbRbtX48eN91q9fP6M8tleebYKoki7974gqfWnGT5RujbmTG1dFlbe398K5c+cuIlL0na5evfpLclohzbkGd3rh+zWBqOJwL1lZWUVFR0dbkSigQVqzZs0Pr169oqCn2fKuNpdFFbHx8vJauHnz5kUZGRkiVOx8iqura+CaNWt+Jy818mZYVuWPHz9++/bt20eTsNTS0sp4/Pixaa1atd5Kq3wSVSoqKuSoQmT+J21RRcKwVatWD2JiYszpWWjRosW9u3fvWnDhZf3u3Tsd8rxGzyXVrcDcNOfixYsW1tbW8aVl/ODBgxZWVla3BAKBGguv4OLicuzAgQP9S5tneU/3Le9/5VlU3bp1q3nbtm3v07jT0NBQysnJUbp582bbtm3bRpX3vi7r9imiqLp48WLHLl26hIqzio+Pr9ekSROpxxEsaX9AVJWU2P/dz0VRVXBk5UFSUlJTZvo3bty47Zs3bx5b+pYqZkqIKg7328yZM1evWrVqOhMEVNXo6Og2lpaWUo8DVFIMXBdV9JD3799///Hjx78e2GaHJzU0NLLc3d0D3N3dd7Rt2/Y2FybnJeVfkvvPnDnj1KdPn2BaQBIKhYLly5fPmTVr1oqS5PGjewuJKuGVK1fspLlTFRER0dnW1vYiuVPn8/nCxYsXL1y4cOFSadVfknz++OMPr3nz5q0QdyozdOjQvf7+/hKbmtLZqgMHDriJPf/5r169amBoaFhik0JJ2qgoaSuaqPLz8/P08PD4i52nooWN/Pz8ajweL1NR+kxR6rlnz54hw4cP9xevb2JiYpPGjRsncLUNBaKKztZ9nedBVHG1t4pfLy6KqsDAwIFubm4HqBXMuuLatWv29vb2Ik/MFemCqOJwbx8+fNiVdlZYvCqqKsVhGjx4sNxdq3NdVBEroVCo0b179xPnz5//H6+JzP1wq1at7g0YMODgwIEDDzdo0CCZw8Oh1FUj73y1a9d+/PHjRyNaRapWrdo/b968ofM5Upl8iZv/qaioCC9fviw1UUW7VF27dr1w+fJlJ6q7urp6PgXT5UJfkee1unXrPn758mUdsc4RxsXFtWjatGlMqTusICHtVrVs2fIuBe6hdwBdU6ZMWb9u3bopkuZdHtNXNFFFi24+Pj7TmaBv1qxZ3IMHD8zLY9/Ku02FRRXtSD948MCMy+dFQkNDO3bq1InTooqde9bR0cn9/PmzHhescOQ91ooqX1xU0b36+vqpHz58oMUUQVFpZfX7Fi1a3I+Pjxc5B6OrZcuWsRQftLwvWH+LJ0SVrEaZFPIt5PFMZDM/f/78pQsXLlwghewlykIRRFWBsFKhXY0lS5Z4aWlpqWRmZopMtOiiFwBbValUqZJSo0aNYiwsLP62srK63b59++i6devG1KpV61/7QQW/li9fPu/3338X7e5oaGgIFixYMG/u3Ll/SqNZJKrIFl5VVVUlPz9fGBYWJjVRFRwc3J3OFxXsUin98ssvp48ePdpPnh8Qxmz79u3Dx4wZs5sEOv0h0denT5/zp06d6i4NrpRHx44dL1y9erULO1tJ7tkfP35cT09P76O0yigv+RSIqg+sPfRsl2fzv6FDhx7w9/cX7cTTbmaHDh0uhIaGdi0v/cmldgQEBAwZMmSIP32DaVzRtyMhIYHTourcuXMOPXr0IPM/zu1UXbt2zc7e3v4a9XFBDMXc/Pz8KjhTVfSo59pO1aZNm8ZNmjRpCzumQn+vXr16yowZMzgT8qRoqtK7A6JKeiylnhOthNPKjbKy8lcvYCNGjPDduXPnKKkXVsIMFUVUsWZdunSpw+jRozc/fvy4GTMD1NLSUiKRJX6xHSyapGhqamabmJg8b9WqVYS1tfWttm3bRrRp0yZJWjs8JUQu0e10iL9BgwaJX758qU5nLzQ1NdNv377dztzcXOIAoSSq9PX1M9PS0lSVlJQEN2/etG/btq3E3v9SU1OrWFlZ3fnnn39MSLBoaGjwr1692r5du3ZyN3+lHTRLS8sHd+7cEe0MMBO9S5cuOTo6OkrNnfW1a9c62tvbhzLX6jR2582bt2DZsmWcMH+UaFBKOXFFE1UdOnQIv3r1qi2bmLq5uR3at28f4lNJeVxRdn5+fkNGjx7tz2KB0fNIXmYbNmxIYR7kNo+iHWz27qG/2UWLW0lJSc2XLFkyVxwHV8z/mKhi31tNTU3BqlWrxleuXJmfn5/PIw+vxJUtJsmgS4uVZdOmTW/b29vfLtbNZXRTYVFVrVq11Hfv3sllpyohIaGepaXl3ZycHF1mTVG9evW0t2/fGvN4vC9lhIRTxcjtZVAWFKKioizatGkTLV7Wvn373AYPHiyy/VSEi87/5OTkaDK7eVdX14ADBw4MlXfdFU1UES8yg9uxY8fI+fPnz09NTa3DtqqJLV3sg1mYrbgHNj09vSwzM7Po7t27X3JycgqxtbW9zuPx8uXdH8Upn1aUJk6cuJHiSVSuXFnJyMgoPiIiwrpq1aqfipP+e/eQmaWamlpGfn6+ipqaGrlUt7Wzs7shYZ7K48aN27Jt27YxlA/1kbu7u9+OHTs8uWBSEB4e3t7Ozu46C3dAdaQdzlu3bllJ0u5vpbWxsbkeGRnZnn5HDgn09PTe3L9/v3552UWVFq+KJqrMzMziabeEvZ8mTJiwadOmTROlxRP5/B8BElUeHh6iM1XEm6wdKI6cvC8mSqgezJSO1ZEtHorVUUi73KUJ8yDtdjJRJV5nVob491aOelVUHV1d3Yzk5OTa1atX54xAKCyqqlSpkpqammpQ1t/FJ0+e1Pr111/P3L59uzX1E30LacF2xowZq1avXu0l7TGjKPlBVHG8pwwMDN5/+PDBgImqAQMGHDl8+PAAeVdbEUUVYyYUCjUDAwN/3b9//8CQkJBOOTk52vQBohcDcaafmcBi3MVf9PQho4tW0WrVqvW+T58+B11dXY936tTpKo/H+9eomIMXiUoKxBcaGurIJgQDBw48eODAgUGSmNMVBBhO5vF4Kqqqqvxbt26Zt2zZUqLYFBs3bpxI54c0NDRo1VKpatWqj+Pi4tpwxext5MiRf+3cudOTTWZolc7f318mCzYswCtbkaaxuHHjxt8mTJiwlYPDTG5VqmiiytjY+MmzZ89M2MS6ok9mZDnw2JkqMacgSvTMy3vST21m365v/VyICddEFYWH4LHxK/6NpXqLO+iSZd8WkbfgyZMn9evVqyd3j4msnuKiisajnp4e7VSVqah6+PBhU0dHx7OvXr0yofHHdqm0tbUzYmNjG3Il3Ik8xg1ElTyol6DMWrVqvXzz5o0hW3Xq37//iW30JKcAACAASURBVKNHj8o9VlV0dHTL1q1b3xVfDfP19R3l6enpW4Lmyf3Wjx8/6kVERHQ4ffp016tXr3Z69OhRo7y8PNHWlbj9PP2bvfTpI0AvfBJV7GVCv69Xr97jUaNG7RoxYsQ2Q0PD93Jv3Dcq8Pz58zqtW7eO/PDhQ13ykEjnq8hRx8qVK0eVdudj9erVk+fMmbMmNzdXmXascnNzq5fWNp5MXmfMmLFs7dq1M5nph4aGRnpERISTlZXV31xgSqK8Ro0aKe/fv6/Cxn+TJk0excXFkfMPqS9fF7irjYuLi2vMxqGJicmTx48fN0SQ1/8bERVNVDVo0OAhxTNkk9KpU6eW25hc8n7uSVSNHDnSn95JLCC3+Ltf3vUrXL74wp/Y7zgpqqh+4jturL6FRZY8GGtrawtv375d38zM7Ik8yv9Wmd85U1Umooq+z8uXL5+8ZMmS+VlZWTqsftR/NF9au3btWArhwhVW8qgHRJU8qJegTH19/Q80WWATTHJbGRgY6FaCLGRya3kRVYXhvH79WjshIaHt5cuXO926dcsyPj7e9M2bN6bZ2dkaNIH+hkmF6INAF+ujqlWrZowZM2ajl5fXCn19/TSZdIAEmd6/f7+5ra3t5ZycHAO2Y9WyZcv4bdu2ebRv3/5mScwIXr16Va1du3bRz58/N6Lt/7Zt24aFh4d3LGn1yIT+wYMHzcaOHbsjKiqqPX1QqW6VK1fOOnDggGuvXr1OlTRPWd2/devWcWSaSPlrampS5HglHx+fqdOnT18nqzIpztiYMWO201ijMUh/BwQEDHBzczsiqzIVLd+KJqpsbGxuRkZGtmETUk9Pz22+vr7jFK3fFKG+5Khi6NCh/vTsMZNfLkz6WR1okY+9Fwq8pH7LPJGzoorGQMEuoJBMnOlbyhxJSWF8lHqeq6ur+zotLc2Ex+PlSKEeUsniW6IqNTW1qlQy/04mtLBHXn29vLzW3759uxX77rHFZUo2cuRIvH/EvcLIskPklXd5OFOlrq6elZubq8lenh4eHrv8/Pw85MWUlVteRVVhrjTZp7lzcnKyYVRUVOv79+9b3b592/LmzZtWnz590qP7xVfZmHkI/b+urm7a3LlzV3p5efnIYgdDkjGQkJDQeODAgftiYmIsVFRUePQhFggE/G7dul0eNmyYf4cOHYLq1Knz8XsCi7jcu3ev1ciRI3dGR0dbEAM+ny8ICAgYOmTIkP3FqRvl8fr162pXrlzpsnfv3iEhISFd+Hy+aJeQPqpGRkYvd+7cOdjZ2TmsOPmVxT1CoVCbzqKlpKQYsZXqOnXqPH/x4kXj0u7OFafe5AykXr16D58/f/4TC7FgZmaWEBsb25JrY6s47ZHFPRVNVP38889Hjx8//gt7/wwYMOD04cOH+8iCbUXPU1xUsXf8X3/95dmwYcMkYiMvZxX03qb60J/09HRahBKZrpOjh+joaMtp06aJL/RwUlTR+FVTU8uPjIxsXbt27bS0tDSRCKpSpYpowUrSq7R9Qwy1tLTel9aCQ9J6fy99YfM/oVD45e7du/b5+fn5eXl5PDU1NZGTj9KWn5+fr5yenl45Oztb++XLlz9dunSpc1BQkGNaWloN8XiM7L2jpqaW5+3tPY9CPEhyjKC09eVaulKD51pDvlUfRRdVtAtgaGj4VlVVVTTppWvmzJk+q1atmiFv/hVFVH2PMwmCu3fvtjx06JBbYGDgz0+fPm0ofi8dwKU+o3dbixYt/r569WpPXV3dr+6e5d1/VD6Zsbm5ue05dOhQf1qJorkBBQemD7RAIMhv3779bXKS0LBhw/hatWq9VVNTI0+Uyq9evap78uTJPmfOnOkpEAh4TJR169btQlBQUA9xkzQ6x3X79u0mz58/b0QOV7Kzs1U+f/5cNT4+vvGtW7fa3b59u7mKiooKn88XvYuIF72Yzc3NHxw9evRXLsSjEu8rb2/vqQsXLlwj7gWMdpFGjx79l6z79M8//5w7e/bsZawcYuXn5zeSHHjIumxFyL+iiaopU6as27hx42QS2bRy3KBBgwcxMTEtFKGvFK2OChz8l1yqs4uzokpZWTknLy9PX5YLU4o25r5X37Nnz3br2bNnEL3/CxYzvy7sijtRKc5OqviRBhJMNG9hxxrYLhTtgDKHIsxSglnsWFpa3tm+ffuwNm3aSByXsbz0D0QVh3syLCzM2cHBIZitCNBkd9u2bSM8PT33yLvaFV1UifMnb3oXLlzovGvXrnEHDx6kGEpfXcGyF1/37t3PnD59uk9JTOvKoo9J9KxZs2bMypUrF5ELczofnJuby9PW1ha5m6cxx+fz+eTWn4RkwS6JkMSVuLCg83WnT592rl279juq9+vXr2ts3rx5+s6dO4e9efOmBnP9S6t/JMToKtgFFJ1PI43H5/OFurq66ZMnT/YZPXr0KiMjo6yyYFDcMsievHHjxglJSUn1KK5ZVlaWUo0aNV7fvXu3vqGhoVQCKf+oLomJiXVatGjxLCcnh/CLPn6NGjWKT0xMbIYVQiWliiaq1q9fP3Hy5Mkb2ESncuXKaZ8/f66JncviPtHFv+9boorrcaouXrzYsUuXLhBVxe9mhbhTXFSJC57CIupb59QKN1A8VIe4J0YywSRPfuwSz4t+1tHRefvnn38uGTdu3F943/yXKkQVhx+jVatWTZo5c+Z68Yfl+vXrdtbW1hHyrjZE1bd7gHZHR4wYsTspKakF8yLIXlYUM2TBggV/yLvvvlU+TUiXL18+wc/Pb3R6enqtjIwMWp1SEfeEKO6liZnAqKurC3v06HHUz89vFDs/dvbs2V4jRozwe/fuXXXxlzLbvWNmcwVBmAUkzvT19d+OGzdu95QpUzZUr149hYuM9u7dO2jYsGH7WN2Iwbx58xYuWrRoSVnV95dffjl+7Nixfqw8ejecOnWqT+/evU+XVR24Wk5FE1Xh4eH2dnZ25EHt6xUXF9e8adOmWDWW8iBVRFF1+fJlh86dO18RR/H48WMTDrlU/+r9r2CnioL/Sm7vJ+W+51p2hUWVeGxN+l7Td6m47v7Z3LKwG3uWD7WdvtdsZ4occE2ePHm5l5fXdh6Pl841NlyoD0QVF3rhO3Xo1avX6aCgoF60Ik2DWktLKyc5ObkuFzzLQVR9f+CQWd2gQYN8AwMDBzNBRS8tXV3d7JCQkDZc3iqnmFNBQUGdz5071+vKlSv2cXFxDdXV1dXoJU27S7SrlJubK6xSpUpG586dL48ePXpD165dw9hOyYULF3p069bthLKyshqJJYpbVfDCpp0o2sETErlq1aqlGxsbJ9nb21/v3LlzUJ8+fSjALWcOA3+rd5s1a3Y3Pj6ezjCJTDurVKny5fnz5/V1dHREu3NlcV29erVtp06dRF4Q6b1AH1ArK6vr169ftymL8rlcRkUTVe/evdMxNTV99eXLl8rULzQuyTR8xowZPlzuJ0WsW3kRVVwL/ktjgUQBRFXxnwpxUUXfY/oWkWVJdna26BvL3gXfcqpVuJTCIQJ+5MaeAl1HRERY1qhRA2LqB90FUVX8sVymd9LktlatWilv377Vp4LpAWnTps1d2gkp04p8pzCIqh/3Apm2/fbbb1u2bt06Vvwl169fv5MnTpz4utPAhb78Xh2Yk47ExMRamZmZBllZWWqZmZlCY2PjtEaNGj0tvKr46NEj41atWt3+8uVLNeZ23tTUNMnDw2Nr9+7dr6moqHyinS0y8atRowadL+NzzRzyeywuX77sSMGe2UFdat/o0aM3b926dUJZ96GNjU3YzZs3O4gHq759+7Z169atJQq4XNbtkHZ5FU1UET9bW9ur169ft2eeRzt27Bh65cqVztJmW9HzU0RR9Q3zPyWIKsUfyYV3qqpWrZrp6+vbz8DAIIc5LqFWin8fvtdquoc5NyGnIHQ2k4RWVlaWOnkTffr0aX1aGCaxlZ2dnfv06VMzCueh+BRl1wKIKtmxlSjnU6dO9erbt+9p8dWGadOmrVmzZs10iTKWUmKIqqJBkjBu06ZNxP3791uz7Xh1dfX8uLi4JlxzwFB0a4q+o2/fvmeCgoJ60pjNy8sTeHh47Nm5c+cEHo8n8/NGRddOsjvs7e1DIiMjHdmusYqKiuDRo0cN5PGBIQchvXr1OiN+UJn+febMmd6StVKxU1dEUbVixYrZs2bN+mpSrK2tzY+JiWnApWClij2q/q09RJV0e/HatWt29vb21yhX7FSVjG1hUVWtWjUK/ltN2udqDx8+/IuLi8sRdvaZxNewYcM2bdmyZWLJalyx7oao4mh/u7q6Hj5w4MCvrHoUG4Mepi5dugRzocoQVcXrhWvXrrWzt7cX7SCwWCJr1qzxmjJlyqri5aAYdxW083qBiaDA1dV1v7+//3Bpv+jlQePBgwctWrZseZccbFD5tHLXrl270PDwcLnsCJBjlBYtWtyLi4szJ3v3Ao+JfKqnubl5nDwYcaHMiiiqHjx4UN/a2jopPT39q/OSuXPnLvH29l7IhT4pL3UoJ6JKSHEXmzRp8lTe/QJRVfoeEHepToJUS0sr9fPnz1IXVVRDBweHa2FhYXbs3Ja2tnZWbGxsfRMTE06eey49VemlhKiSHkup5fT582eD2rVrv8jIyBDFp6LLwMDgzbt37+qIu6uWWoGlyAiiqvjQTE1NE1+8eNGI7Vb16NHjLJ1ZKn4O3L9z7Nixm/38/H6jNtaoUePFmzdvmvJ4vC/cr3nRNRw8ePC+ffv2DRK3NyfBOHTo0L1Fp5bNHb6+vh6enp47xQ8Yu7u779m1a9cI2ZTI/VwroqiiXrGxsbkWGRlpRz/T5MfAwOBDbGysCc4+SG/M7t27d+iwYcP+87wrovc/iCrpjQl55SQuqgrOaqempqbKRFRFRkZaODg43KT4kWSBQuUNHz58165du+QeK1Ve/IsqF6KqKEJy+P2yZcvmzZs3bykVzSZyXl5eK1auXPm7HKrzzSIhqorfE/PmzVu2bNmyuUwg6+npfUhNTa3F4/H+DT5WDi4zM7PYxMTEpuQ/wdvbe/GcOXPKzCOeLPHFxsY2bdmy5R0+n6/OTHGp/54/f26mo6OT8ebNG4rv9Z+L3M8X/r/q1asL37x5I/rvmjVriv5m/y6q/uL3F/wsTE1NVWvduvW9J0+e/MTeEdra2rm3bt1q3qRJE1FA0op2VVRRdfDgwf4DBw48It7fc+fOXe7t7T27oo0BWbUXokq6ZL+xU5Wbl5enB+9/RXMWF1X0TdLX10/9+PGjTEQV1WbKlCk+69atm8acWtA3PiQkpKeTk9P5omtb8e6AqOJYn79+/Vq7RYsWj9++fVuDVU1LSyvz8ePH9SgAK1eqC1FV/J7Yu3ev67BhwwLZ5FdZWVnw6tUrXa5Fai9+i/73Th0dnU8ZGRm61Lb9+/f/7OLickqS/LiSdsCAAUfJtpzqw/pPQ0NDmJOTIwq1RU7XyI/Mj+rLxFhBPC6Ri1q6ClzM/zAtCXFmdliQhpeXlyfU0tKiw8QU60uJYorQDiH97OLicvjQoUMuXOFXlvWoqKKKGDPnJWxsqaur50RFRbVq0aJFQln2gSRlPX/+vNIff/yxRkdH58uKFSuW8Xi8z5LkJ820EFXSpKmkBFFVep5lLaqEQqGWoaFh/Pv3743ZbpW2tnZKampqI7hV/99+hKgq/diWScqlS5cuW7BggWhXg8UKGDNmzKZNmzZx6nAgV0VVfHx8I39//yF8Pl+tUqVKOdOmTdukq6v7XiadVcxMQ0JCujg5OV0QiwkhTElJqcUlkVzMpnz3NlVVVXKzqs3n8wXkVp0rZ/8kadeTJ09M6tWr91BNTU2VvCQVdlFbnIj1VD4FCiYHF+LBFCktc4f7ozqy3U1x4VQgtETJ6KwlMyul/NTV1fPu3LljYmZm9kqStiti2oosqq5fv25rbW1NB/+/ftMpXMHVq1ftFOVc4/z58/9cunTp72TCWLly5XdBQUF9bW1tr3NhLOJMlXR7AaKq9DzLWlRRTQMDAwe5ubkFsPcLPaNTp05d6ePjM6v0LSmfKSGqONSviYmJZq1atYrOycmpRJOwArfUWYmJiU24ELBPHBVXRVXXrl0vBgcHO7H4UB4eHv5+fn7D5NnNV65c6UQxncTccQtfvnxZrkSVtrZ2ZkZGRiUyDThz5kyPXr16ccKhiiT9PmrUqK2BgYFj09PTRbbkZP6Ql5dXoiz19PSUqlevnpadna316tUrdRoD4pHri8pMPJI9M7+gv0lMZWb+61SR3OCSO1x278qVK2d7eXktLyrv8vb7iiyqqC+7desWfP78eWdxsT1v3rxFy5YtW8z1vo6Ojm7q4OBA4Rg0qa70vFGgbRIzXKh7ORFVXHapDvO/Yg50eYgq8gBobW0defPmzfbsG6aiopIdFRXVrHnz5o+KWfUKcRtEFUe6mQLGNm/ePComJqYZVYlNkOhs1bJlyxZwpJpfq8FVUWVraxsUERHRjU1cLSwsbt65c6edPPkdPXq054ABA87Qy6jAhEz44cOHKgYGBpwxb5GUD5moZmZmVlJVVRWePXvWqWvXrpclzVOe6V+/fl2D3N6np6friIsgtjtFooZ+LipyPdttZlHp2c6T+P//qJ10HzM7ZN4jWUwiNvlkebG4JM2aNUuIiYlpIk9+8ig7LS1Nv0qVKh9Z2cR6ypQpa9euXTtNHvUp6zIvX75s27lz56sqKiqic34FpoD55KXSzs5O5L6aixd9+yiA9d27d1uJmS8qeXt7T585c+YaLtQZokq6vYCdqtLzlIeootreuHGjffv27SPIzSj7Bv38889njh8/XqFDeRTuSYiq0o9tqaWkVQAPD49du3fvHk6Z0oSNPi516tR59PTpU3Mej5cjtcKklBFXRdXs2bM3/vnnn6KArDQZNjY2fpqcnGwqzyCzK1eu9Jo1a9YKZj6mpqaWl5ubq8PFfi3t8NDQ0MjKy8vTFAgEwpCQEAqUG1ravLiQbvHixQuXLl26iIQKiwfVvXv3M7a2tuEUvT4tLY1HzyiZ5f3oosURutjOM/2bhBjteDGzwB+lp10pSkt/f/r0SZSG/R+lEwqFwpMnT/ajDx4ri8ZZWFhYxw4dOoRxgWVZ1aGiiyriPGzYsP0BAQFubDWZxm6VKlVeX7lypUPTpk0fllVfFLccoVCo2rt37+NnzpwReUNlCxhWVlY3o6KiyHSxZFvDxS24hPdBVJUQWBG3Q1SVnqe8RBXVuHv37ueDgoK6illuCM+fP9+jW7ducFpR0KUQVaUf21JLuWDBgvlLly5dwibdBbtUeREREQ5csSkv3FiuiqrVq1dP9vLyWscmsjSfTU5ObizPYLu9evU6GxQU1IP6lyY7TZo0SY6Li6NDnj90UiC1ASbjjGhRQFNTM0sgEGiQE4WLFy927tKlyxUZFyuz7IVCYaXq1av/8/79++rM5E5TUzM7JibmpwYNGnDGWQwDcPPmzVbt2rWLZkEaqc7t2rULiYiI6CIzSBzMGKJKicS+fvPmzW+/ffu2HnNeQt+T2rVrP71x44adkZHRS650HY3XESNG7AwICHCnBQomqLS0tD4lJCS0NjY25oxZEUSVdEcNRFXpecpTVF24cMGxb9++IWRuTvMZerc0a9Ys9t69e63Kkzfj0veO2KFWSTLhatqoqCiLNm3aRIvXb9++fW6DBw8+wJU6b9iwYcKkSZM2MnM/dvB86dKl8+bPn+/NlXoqiqi6efOmedu2bWOovmyHgVzUz549Wy4snzx5UqtRo0Yv8vLyVFidhg8fvnv37t3uXO3bktaLJkcaGhrZubm56srKyiSqOjo6Ol4taT5cuX/r1q3jxo0bt4WZ+tGz6enpuWPHjh1juFLHwvVwdHS8eOnSJSdmKqimpia4ceOGRevWre9ztc7SrhdE1b9EIyIi2nTq1Olabm6uBhMqJLSNjIyeBgcHOzZq1OixtNmXND+hUKjh4eHht3v37kHiDmBo/Pr7+w8aNGhQYEnzlOX9EFXSpQtRVXqe8hRV9K1v167d1YJdZJGwoj/btm0bN3bs2G2lb1X5SVnud6poBZcmRey8wYEDB9xcXV3lLqpocC5atGjR4sWLF5AJEXkGo0kc/bG2to4IDw934Eqg328Nd67uVBFX8tiWkpJSnzHV0dFJTUpKMpOHt705c+Ys/+OPP0QecphwjoyMtLWxsYksL68RMuHR0NDIzM3NVSNRdeHCBQcnJyfOnuH4EXehUKjcqFGjxOTk5AZi55ny79+/35zL7qkvXbrU2dHR8VKBcxuReeHw4cMD9+zZM6i8jLOi2gFR9X+E9u3bN3jo0KG7lZSUVNn5BxIsRkZGSVeuXOlmYmLypCiesvo9ORT5+eefj12+fNlB/L1IP/v4+EydPn26yNKASxdElXR7g4kqZgmgrKycy+fzEaeqGJjPnj3brWfPnkFs0U/WcaoKV6lg0eZ6bm6uaKGYNgL09fXfUDBsfX39tGI0oVzfUu5FlfhOFXX+nj17XN3c3A7Ks1cpoOj48eM3hYeHd6IPHU3+2YpiixYtHpw5c6absbExp10ic1VUUb9u3bp1wrhx4zZSLB/mxtrW1jby4MGD/WrXrv2urPr+xIkTvV1cXI7l5eWJopHTZWdnFxkeHm5bVnWQdTlv3rypuX//fpfZs2evzc7OFr1kZ8yYsWnw4MEbLCwsOHeGoyge586d692vX79T4g4oFEWcODk5BYeEhIi8vxUIeD6ZZbRs2VK0c1veL4iq//bwyZMnf3F1dd2dl5enwxYV6Y6qVaumjxkzZsXkyZPXlmWsPFp82bNnz9B58+YtTklJMWKTQuacYtGiRcsWLVo0n4vjFKJKur0ivlNFOWtqauZlZWXpIvhv0ZzlLaqohlOmTNmwbt06UZgf9hx7eHjs9vPzKzcWOEX3xLfvKPeiquCsgaj11Pm7du1yHT58uNxE1ebNmyfMmjVrdXp6+v+ccLe2to46f/58Nz09va8erErbsbJOx2VRRbsN3bt3v3b+/Hkb8Yfe3Nw86dChQz3Nzc2TZc2HVmHpLFVmZqY2CeeCF09+aGiobYcOHW7KuvyyyN/X13c4vVzT09N1qTxaGKDJPAlZ+khOnDhx7cqVK+dx5bB5cZgwYcK89Kmrq+ffuHGjqSIIxLt371pQSAa2803t7du376mTJ0/2LU7bFf0eiKr/7UFawHNycjqTkpJSj5ycZGVliRyd0CJP3bp1Xy5evHgWLRrIOpYV7fSSud/9+/etxBcsCqwzhD4+Pl5Tp05dzdUxCFEl3Z5hoooddyhw3gRRVQzMXBBVFBDY2Ng46fXr13VoJ7zAaZPw2LFjHXv27Kmwpv/FwF/kLeVeVNFOFTtbQx0fEBDgOmTIkDIXVaGhoXYLFy5cdvXqVZHJA3kQy8jIEG2d0qDs1KnTxf379/evXr36lyJ7jQM3cFlUEZ6wsDAbZ2fnsJycHFVxYUUxg3bv3u3Ws2dPmXirIfPDHTt2jBw3btxm2hlnNsdUh/Hjx2/dvHnzbxzoPomr4O/vP2z06NF+SkpKKiSi2E4cO7xKDkLIFHD06NFbt2zZwqnA1d9r/IsXL+pSPLjc3FyRyz6afPbq1evEiRMnfpYYWBllwM5WUXEUvyonJ4cctZjVr19f4XYNS4oMourbxGg32cXF5VBYWFgHdgczRaaFkGbNmt2fNm2a95AhQ45IW1xRaILFixcv3rp162g1NTVlMktlJqoF5rVZu3btGjpo0KCjJe3vsrwfokq6tMV3qug9q6ysnJ+Tk0MecbOlW1L5y40Looqo0nPr7u6+l35mZ3lbt25979atW5bSfo8oUi9WCFEl3iEnTpxw7devX5mIKqFQqHby5Mlua9eu9aLI9jTJoZVCdjGTvwkTJmzauHHjDEVysX3nzp1WlpaWd8QPGfv6+o7y9PT05coDsGXLlrGTJk3akp+fz6NVWlohLTA1Ebq7u/tP+X/t3Q1QVeW+x3EJpBCFK6LJtiSlfLsq6shBoJuooEfzhjclE1+yM2qd27Wyg1iEp26JNmJTnXNk0vFINxMdPVrKMZXjAJYcXxB6UTCcPCpqviVs0XhRNvvOn/FxdoyG4IZnP/R1xvGFvdfzrM9/7b3Wb631POvllxcHBwcXO6u/e/fuDU1ISFgmOwx1VliWLXX29/c/VVhYOMDPz++ys9rTtZySkhJL//79i8rLy32lD3KQ1KNHj6PR0dG7v/vuu565ubmRNybmsLu7u9szMjKix40b5/LPrYqPj39v2bJlLzu65uTkhEdGRu7VZd3YdrOzsyNHjBiR7fhsqxkzZqSlpaX9rrHLMu31hKrbV0yu3r/++utvpaSkvGq3293V7YAqXMnVzZ49ex57+umn/zp58uT1ffr0afKYK9nv5eTkhK5bt27amjVrZlZVVd2rxieqGVClpw888MDxjIyMyYMHD85z9W2NUOXcCqlQJSe8bxwH2Wpra71NOgZyrsidL81VQpV8p4SFhe3bt29fiOOzHLdu3fqfTzzxxN/vfI1a1ytbfagKCwurm/1P7UTWrVvXrGOqZDrm3NzcoWvXro399NNPp5w7d87f8aGdclZGvkjkjN199913df369bNaKuQ5c9M1IVTJ+i5evDgxMTGxbuY/h5nR6ihqamrsI0aM2DNmzJjNctDfv3//w409w1JaWuqbnp4e+/HHHz+Xn58/VI0PUNY3Dlpq9u/fPzI0NNTIyRvqbzdvvfXW/7755pt/lHWT9ZXxVMnJyQvkNj/5ov3oo4+mynPX2rZtK2OsasePH/+PzZs3/9aZ25+zlyUH5EFBQScuXbrkI+sln9FBgwYdyM/P1/rg6Kas58CBAw9/++23/662d09Pz+pDhw4F9e7d22Wm027KejX0HkJVQ0Jt2qxatSpu7ty5KysrK71VoFJ/qhMkHh4etWFhYXtGjx6dGRERUdCrV6+8gICAS7d7rhgI4QAAExtJREFUBITM5FdUVBSUn58/KCsrKzIrK+txOfGitj+HZ9rUXT2V6Zifeuqp9StWrPi9KQPbCVUNb1uNeUX9MVVeXl62ioqK9lypaljRVUKV9FQeOD5q1Kg98nc5YSKf9ccee+yfu3fvbjXjxhuuyM9f0epDleNEFXI2Lj4+/p3HH388vWPHjm0qKirc5Pa769ev33Ro27btz54dVO/+75uvq6qqkqdK+xcVFT1YVlZ2v8wWlpeXN6y4uDiosrKybryUY4BSB/Wy0UnAmzBhwvaUlJS5jzzyiMs8i6MxG48poUrWadu2bXGTJk36sLKysoPa0TseSKj17tixY/mAAQO+GTJkSEFgYOB5Hx+fs926dTvn7e191dPTs+62BDc3NzcZQ1RQUNDv4MGDj27ZsmWs3LbgeJufWp605eHhUbVy5cqZOsfxNaaud/La0NDQfx48eDBMAlVQUNCx77//vm/9cVNyoiAjI+Mpm81m9/X1/clqtXZyc3O7difL1/Ga5OTk15KSkharnYN8L6xdu3ZibGzsZh39uZs2U1JS5s+fP3+pWoZ8D7322mtL33777bpZKFvrL0LVnVX2yJEjD73yyivL5dl5N77T6q4WOO7r1FgXtd/y8/OzBgQE/MtisVg9PT0rrVZr+x9//LFraWmp/4ULFzrJLexq9lo126Bjb9TPvLy8Lq5evfp/Jk+evOHOeusaryJUObcOKlRJyJbtTrYZObHp7u5+5Z577nGT/ansXzw8PG51jNqcz3f8WXtya7uvr2+bbt26HZNxf64wPtiVQpVsFRMmTPjbZ599NtFxC9m1a9fIqKiobOduNWYsrdWHqmHDhslDMes+tGoHIX9Xqdrx9rVblUwNWFcHW2p8llpG/feos9z1r1io5VgsllOpqakvx8TEGHew5riuJoUq6beE3jlz5qzMysoaoS5VOwYsqY/aRhy3CTWzjTr4UNuBsnAMZ2q58qcEZ4vFcnrjxo0Tw8PDW8XEFGqdAwMDT5w8eTJQDtanT5/+cVpa2jP1Pwcydmzu3Ll/EQsZ13P27NmAlpx5sTFfv3Km/cEHHzx2+vTpbuo7wmKxfF9SUtLPFXaijVkXea2MobFYLCU2m02eG1a3XXt7e5efOnWqe2u4/fR2HoSqxm0pO3fuHJuYmLgoPz9fxkDcHBepthkVhGSptwtKaj8q73Hcz8p7HE8qdunS5fz8+fPfmzVr1gpTrk45ahKqGrdtNfTq+leq1NTqap+sth/HWSsbWmZz/Fzt0+WzsG/fvsdc4W4TVwtVR48e7RkcHFxYXV19n3xPyHdBcHDwoYKCAvleqWmOurjyMlt9qFITVdQ/GFYhp6FQ1ZTiOd7up3ZQ999/f5lM8/3CCy8sM2Uyil9a9wMHDgwaNmzYV4472xUrVsx+7rnnXGZM1a36v2nTpieSk5OTCwoK+qsDAbUNSN3qh+XbbSfqIMTxYMTxdqtp06alv/POO4ldunQ515RtyJXf07dv38IjR470k7PZI0eO3LV9+/Yx9W+bTEpKWrRo0aJEd3d3N5vNVnPx4kU/V93u09LSZj777LNpYq5mzvvwww9ffP755//synX4pb7NmjXr/1atWjVDvUa20yVLlix49dVXb17BMnXdbtfvkydPduzVq1epeoyCfL5lBsoPPvjglda2rs5aH7ldd/PmzTGpqan//cUXX8hYSA/HA1vH77f6bda/MqX+ra7ay78DAgJ+mDdv3p+mTp36Z4vFUuGsfrf0ctLT06fFxcWtcTyJJs/l6dOnj9PG5Dp7nbZv3y4zsWWrfbR8X3/zzTc9+vbte8LZbTV2eTJxV3R09Je6Q1ND/Vbbv4S+HTt2REdFRe1q6D3N/XMZpz9p0qTtMoREQp+Hh0dZRUWFf2OHLjiznwkJCUvffffd+XIxQd3um5qaOmv27Nl/dWY7JiyrVYcquZoyePDgr1QhHKa2vnnw7HglqikFU7OdqQNyxytUXl5eNZGRkbvj4uLWjhs3blOnTp3Km9KGK77H0VbdKpKenj47Li7OpUPVjXDdduvWrWM/+eST6fJ0chlfUP9MrHyJyi/1pa+uUMr/1Q9e8jwsmYDEz8/v4owZM9bNmTPnPVfYcTXXdjN9+vRPMjIyplqtVhkjYfv8888jRo4cuV+1J1dKgoODv7JarQFVVVX2fv36FcvUzrcbk9Fc/bzT5cbExHy6ZcuWCWo77ty5849FRUU9XTUE3sl6yTTwkZGRh+Q2ZRUUQ0JC9uXl5YXdyftNfI2Mh+vUqZNVbtGVz68cdCQlJb27aNGieBPXp6X7fOLEiYCtW7dO3rRp07ivv/467PLlyzLG5WdXsFSoULf7OV6punGW2hYUFPTdk08+uWP8+PF/i4iIOKDzYM9Zhhs3bnw6NjZ2nSxPXb0oLCx8pCUez9HUdcjLy4sICQnZ4xAE7T/88MNDchW7qct01vv2798fJreR3+3xl7P6c7vlOJ50d5Vb2nbv3j16+PDhO1WfLRbLuTNnzlh07l8vXrzYYeDAgUfPnz/fVR1LyRj1w4cPD2juGrna8lt1qDp+/HjXfv36na6urna/1e0LUoy7/VA73jbm7e1tCwwMLA4JCTk4duzYnPDw8J2u/hDfpm6QhYWF3QcOHPgvNze3upmkxGHHjh3Dx4wZY9QzCuTLoLCwcFhubu5vcnNzhx06dGiohIJr167VfTbUrXy3uqIpU4YHBgYej4qK+jw2NjYjOjo6x5XHDTW11vXfl52dHSWPAJD/lx22jEWTB3qGhoZmnz9/vue8efOWlpSU9JTPnKenZ+3ChQv/uHDhwrrJQlzxV2Zm5qgFCxYsLSsr69SuXbvKpKSkN+Li4owa83Er18WLFyesXr16Tk1NjaePj095QkLC2zoeJ9GSNZ8yZcqazMzM8VevXnXr2rVrmUwY9Oijjx5syT60hrZkAp6CgoLfyK2BJ06cCDx27Fhv+V68cuVK29ra2rbt2rWr7tChg7V79+5nvL29L/fu3ftoeHj43iFDhhzp0KFDiz1gvaWsJXCOGjUqu7y8PODy5cv2mJiYLzZs2BCj80C2oXW32+2ew4cPzzx8+PAgu91uDwsL271t27b/coU+y4ReERER0rdfPOiud3x2N2OpGnusW/d6OSFVWVnpFhwc/O2XX34pd2T81JB7c//8woUL7UePHp115syZXjabrfall15KeeONN5Y0d7sNLT8nJycsPj7+T6WlpZ1tNtv12bNnp8u+tKH3tbafN3ZDM279MzMzh1ZUVPSqqKiwy1WkG1eU3ORP+e04OLcJK2e79957r/v6+lb16NGj+OGHHz79a5oSdM+ePUOLi4t7+/j4tOncuXNJZGSk8bPbyXOmSktLO1y4cMHParU+dPr0aT+5klVdXe0ps6i1b9/+Jz8/vyvdu3c/6e/vf8nHx6fMFXZSTdh2m/wWMXrxxReXL1++/PeyEHXWWl0RuTFBR90sX+Hh4Xtyc3NlZ2TsrT9NhuKNCCCAAAIIIPCrEWj1oepXU0lWFIEWFJCxGImJiUtSUlL+IFcr5UqeumKpzi5OnDjx7xs2bJgiEya2YNdoCgEEEEAAAQQQaHEBQlWLk9MgAq1HICcn5z/ef//9P8gtdNXV1e29vLyuDR06dP8zzzyTOnPmzI1ubm621rO2rAkCCCCAAAIIIHBrAUIVWwYCCNy1gN1u9zh79uy/tWnTpiIgIKDy13ZL5F0DsgAEEEAAAQQQMFqAUGV0+eg8AggggAACCCCAAAII6BYgVOmuAO0jgAACCCCAAAIIIICA0QKEKqPLR+cRQAABBBBAAAEEEEBAtwChSncFaB8BBBBAAAEEEEAAAQSMFiBUGV0+Oo8AAggggAACCCCAAAK6BQhVuitA+wgggAACCCCAAAIIIGC0AKHK6PLReQQQQAABBBBAAAEEENAtQKjSXQHaRwABBBBAAAEEEEAAAaMFCFVGl4/OI4AAAggggAACCCCAgG4BQpXuCtA+AggggAACCCCAAAIIGC1AqDK6fHQeAQQQQAABBBBAAAEEdAsQqnRXgPYRQAABBBBAAAEEEEDAaAFCldHlo/MIIIAAAggggAACCCCgW4BQpbsCtI8AAggggAACCCCAAAJGCxCqjC4fnUcAAQQQQAABBBBAAAHdAoQq3RWgfQQQQAABBBBAAAEEEDBagFBldPnoPAIIIIAAAggggAACCOgWIFTprgDtI4AAAggggAACCCCAgNEChCqjy0fnEUAAAQQQQAABBBBAQLcAoUp3BWgfAQQQQAABBBBAAAEEjBYgVBldPjqPAAIIIIAAAggggAACugUIVborQPsIIIAAAggggAACCCBgtAChyujy0XkEEEAAAQQQQAABBBDQLUCo0l0B2kcAAQQQQAABBBBAAAGjBQhVRpePziOAAAIIIIAAAggggIBuAUKV7grQPgIIIIAAAggggAACCBgtQKgyunx0HgEEEEAAAQQQQAABBHQLEKp0V4D2EUAAAQQQQAABBBBAwGgBQpXR5aPzCCCAAAIIIIAAAgggoFuAUKW7ArSPAAIIIIAAAggggAACRgsQqowuH51HAAEEEEAAAQQQQAAB3QKEKt0VoH0EEEAAAQQQQAABBBAwWoBQZXT56DwCCCCAAAIIIIAAAgjoFiBU6a4A7SOAAAIIIIAAAggggIDRAoQqo8tH5xFAAAEEEEAAAQQQQEC3AKFKdwVoHwEEEEAAAQQQQAABBIwWIFQZXT46jwACCCCAAAIIIIAAAroFCFW6K0D7CCCAAAIIIIAAAgggYLQAocro8tF5BBBAAAEEEEAAAQQQ0C1AqNJdAdpHAAEEEEAAAQQQQAABowUIVUaXj84jgAACCCCAAAIIIICAbgFCle4K0D4CCCCAAAIIIIAAAggYLUCoMrp8dB4BBBBAAAEEEEAAAQR0CxCqdFeA9hFAAAEEEEAAAQQQQMBoAUKV0eWj8wgggAACCCCAAAIIIKBbgFCluwK0jwACCCCAAAIIIIAAAkYLEKqMLh+dRwABBBBAAAEEEEAAAd0ChCrdFaB9BBBAAAEEEEAAAQQQMFqAUGV0+eg8AggggAACCCCAAAII6BYgVOmuAO0jgAACCCCAAAIIIICA0QKEKqPLR+cRQAABBBBAAAEEEEBAtwChSncFaB8BBBBAAAEEEEAAAQSMFiBUGV0+Oo8AAggggAACCCCAAAK6BQhVuitA+wgggAACCCCAAAIIIGC0AKHK6PLReQQQQAABBBBAAAEEENAtQKjSXQHaRwABBBBAAAEEEEAAAaMFCFVGl4/OI4AAAggggAACCCCAgG4BQpXuCtA+AggggAACCCCAAAIIGC1AqDK6fHQeAQQQQAABBBBAAAEEdAsQqnRXgPYRQAABBBBAAAEEEEDAaAFCldHlo/MIIIAAAggggAACCCCgW4BQpbsCtI8AAggggAACCCCAAAJGCxCqjC4fnUcAAQQQQAABBBBAAAHdAoQq3RWgfQQQQAABBBBAAAEEEDBagFBldPnoPAIIIIAAAggggAACCOgWIFTprgDtI4AAAggggAACCCCAgNEChCqjy0fnEUAAAQQQQAABBBBAQLcAoUp3BWgfAQQQQAABBBBAAAEEjBYgVBldPjqPAAIIIIAAAggggAACugUIVborQPsIIIAAAggggAACCCBgtAChyujy0XkEEEAAAQQQQAABBBDQLUCo0l0B2kcAAQQQQAABBBBAAAGjBQhVRpePziOAAAIIIIAAAggggIBuAUKV7grQPgIIIIAAAggggAACCBgtQKgyunx0HgEEEEAAAQQQQAABBHQLEKp0V4D2EUAAAQQQQAABBBBAwGgBQpXR5aPzCCCAAAIIIIAAAgggoFuAUKW7ArSPAAIIIIAAAggggAACRgsQqowuH51HAAEEEEAAAQQQQAAB3QKEKt0VoH0EEEAAAQQQQAABBBAwWoBQZXT56DwCCCCAAAIIIIAAAgjoFiBU6a4A7SOAAAIIIIAAAggggIDRAoQqo8tH5xFAAAEEEEAAAQQQQEC3AKFKdwVoHwEEEEAAAQQQQAABBIwWIFQZXT46jwACCCCAAAIIIIAAAroFCFW6K0D7CCCAAAIIIIAAAgggYLQAocro8tF5BBBAAAEEEEAAAQQQ0C1AqNJdAdpHAAEEEEAAAQQQQAABowUIVUaXj84jgAACCCCAAAIIIICAbgFCle4K0D4CCCCAAAIIIIAAAggYLUCoMrp8dB4BBBBAAAEEEEAAAQR0CxCqdFeA9hFAAAEEEEAAAQQQQMBoAUKV0eWj8wgggAACCCCAAAIIIKBbgFCluwK0jwACCCCAAAIIIIAAAkYLEKqMLh+dRwABBBBAAAEEEEAAAd0ChCrdFaB9BBBAAAEEEEAAAQQQMFqAUGV0+eg8AggggAACCCCAAAII6BYgVOmuAO0jgAACCCCAAAIIIICA0QKEKqPLR+cRQAABBBBAAAEEEEBAtwChSncFaB8BBBBAAAEEEEAAAQSMFiBUGV0+Oo8AAggggAACCCCAAAK6Bf4f1VMOT2M8G8IAAAAASUVORK5CYII=;" vertex="1" parent="1">
          <mxGeometry x="701.97" y="162.5" width="146.06" height="50" as="geometry" />
        </mxCell>
        <mxCell id="jxF4DCrFGfWSiqKUyiHQ-48" value="" style="outlineConnect=0;dashed=0;verticalLabelPosition=bottom;verticalAlign=top;align=center;html=1;shape=mxgraph.aws3.alexa_voice_service;fillColor=#5294CF;gradientColor=none;" vertex="1" parent="1">
          <mxGeometry x="840" y="140" width="31.43" height="33" as="geometry" />
        </mxCell>
      </root>
    </mxGraphModel>
  </diagram>
</mxfile>
